<svg transform="scale(1)" version="1.1" id="VV9EYL0EDx" xmlns="http://www.w3.org/2000/svg" xmlns:xlink="http://www.w3.org/1999/xlink" x="0px" y="0px" viewBox="0 0 500 500" xml:space="preserve" class="pbimage_pbimage__wrapper__image__0LEis false"><title>Customer Service 6</title><style type="text/css"> .st0{fill:#59BE4C;} .st1{fill:#FFFFFF;} .st2{fill:#000005;}
 .st2{fill:#000005;}
 .st1{fill:#FFFFFF;}
 .st0{fill:#59BE4C;}</style><g id="paperplane"><polygon class="st0" points="171.8,128 152.8,113.4 116.7,146.2 	" fill="#59BE4C"></polygon><path class="st0" d="M173.6,126.4l-16.6-12.7l-2.4-1.8c-0.7-0.5-2.5,0.7-2.9,1.1l-12.2,11L120,141.8l-4.5,4.1
		c-0.4,0.3-1.3,1.1-1,1.7s1.1,0.3,1.6,0.2l18.6-6.2l29.7-9.8l6.9-2.3c0.9-0.3,2.4-1.2,2.6-2.2s-0.9-0.9-1.5-0.7l-18.6,6.2l-29.7,9.8
		l-6.9,2.3l0.5,1.9l12.2-11.1l19.5-17.7l4.5-4L151,115l16.6,12.7l2.4,1.8C171,130.3,175,127.4,173.6,126.4z" fill="#59BE4C"></path><polygon class="st1" points="155.7,128.3 171.8,128 157.2,134.2 	" fill="#FFFFFF"></polygon><path class="st0" d="M157.8,128.8l14-0.3h2l-4.5-1l-12.7,5.5l-1.8,0.8l4.8,0.9l-1.5-5.9c-0.1-0.4-2-0.6-2.4-0.7
		c-0.8-0.1-1.7-0.2-2.5-0.2l1.5,5.9c0.1,0.4,1.8,0.6,2.1,0.6c0.5,0.1,1.1,0.2,1.6,0.2c0.4,0.1,0.8,0.1,1.2,0l12.7-5.5l1.8-0.8
		c0.3-0.1-1.3-0.6-1.4-0.6c-1-0.3-2.1-0.4-3.1-0.4l-14,0.3h-2c-1,0,0.7,0.5,0.8,0.5C155.6,128.6,156.7,128.8,157.8,128.8z" fill="#59BE4C"></path><polygon class="st1" points="152.8,113.4 148.7,99.5 108.3,151.5 162.6,155.6 155.7,128.3 116.7,146.2 	" fill="#FFFFFF"></polygon><path class="st0" d="M154.9,112.9L150.8,99c-0.4-1.4-2.7-2.8-3.8-1.3l-13.7,17.7l-21.7,27.9l-5,6.4c-0.8,1.2-0.5,2.9,0.7,3.7
		c0.4,0.2,0.8,0.4,1.2,0.4l18.3,1.4l29.2,2.2l6.7,0.5c1.7,0.1,2.2-1.6,1.9-2.9l-6-23.9l-0.9-3.3c-0.3-1.3-1.7-2.1-3-1.8
		c-0.1,0-0.3,0.1-0.4,0.1l-13.2,6l-21,9.6l-4.9,2.2l3,3.9l12.2-11.1l19.5-17.7l4.5-4c2-1.8-1.3-5.5-3.5-3.6l-12.2,11.1l-19.5,17.7
		l-4.5,4c-0.9,0.8-0.5,2.4,0.1,3.1c0.6,0.9,1.9,1.3,2.9,0.8l13.2-6l21-9.6l4.9-2.2l-3.4-1.6l6,23.9l0.8,3.3l1.9-2.9l-18.3-1.4
		l-29.2-2.2l-6.7-0.5l1.9,4.2l13.7-17.7l21.7-27.9l5-6.4l-3.8-1.3l4.1,13.9c0.4,1.3,1.6,2,2.9,1.9c1.1-0.4,1.8-1.6,1.4-2.7
		C155,113,154.9,112.9,154.9,112.9z" fill="#59BE4C"></path><path class="st0" d="M189,123c9.3-15.3,23.4-27.1,39.4-34.8c16.8-8.1,35.2-12.1,53.8-11.7c10.2,0.2,20.8,2,29.7,7.3
		c7.2,4.3,13.5,10.8,16.1,18.9c1.5,4.6,1.8,9.9-0.6,14.2c-1.9,3.5-5.8,6.3-9.9,6.2c-0.9,0-1.8-0.2-2.6-0.5c-1.4-0.6,0.2,0.2-0.2,0.3
		c0.1,0,0.6-1.4,0.7-1.5c1.2-1.5,2.7-2.6,4.5-3.2c3.7-1.3,7.7-1.1,11.3,0.5c8.2,3.5,11.3,13.5,13,21.5c1.6,7.9,2,17.1-2.2,24.2
		c-1,1.8-2.4,3.3-3.9,4.6c-1.7,1.4,1.3,5.4,2.9,4c7.5-6.3,8.9-16.6,8-25.8c-1-10-4.1-21.3-11.5-28.4c-6.2-6-17.9-8.9-24.6-1.8
		c-2,2.1-2.6,4.9-0.8,7.4c1.5,2.1,4.4,3.1,6.8,3.1c4.7,0,9-2.3,11.6-6.2c3-4.7,3.1-10.7,1.9-15.9c-1.2-5-3.5-9.7-6.7-13.8
		c-6.6-8.3-15.6-14.2-25.9-16.9c-11.1-3.1-22.8-3.1-34.1-1.9c-9.9,1.1-19.6,3.3-28.9,6.7c-18.5,6.7-35.5,18.1-47.1,34.1
		c-1.4,2-2.8,4-4,6.1C184.5,121.3,187.9,125,189,123L189,123z" fill="#59BE4C"></path></g><g id="character-1"><path class="st1" d="M214,231.5c0,0,68.9,12.3,84.8-2.7c0,0-15.6-50.4-22.8-60.3s-39.1-5.1-51.4,5.2S214,231.5,214,231.5z"></path><path class="st2" d="M215.8,232.6c8.1,1.4,16.3,2.5,24.5,3.3c14.5,1.5,29.5,2.5,44,0.3c5.8-0.9,12.4-2.3,16.8-6.4v-0.1
		c-2.8-9.1-5.8-18.2-9-27.2c-2.4-6.9-4.9-13.7-7.6-20.4c-1.1-2.7-2.2-5.4-3.5-8c-0.8-2-2-3.8-3.4-5.5c-2.4-2.6-6.1-4.1-9.4-5.2
		c-3.4-1-7-1.5-10.5-1.4c-8.4,0-16.7,1.6-24.5,4.7c-3.4,1.3-6.6,3-9.6,5.1c-2.1,1.5-3.7,3.6-4.9,5.9c-3,5.8-4.2,12.5-5.2,18.9
		c-1.5,11.1-2.1,22.2-1.8,33.4c0,0.2,0,0.4,0,0.6c0,0.6,1.7,1.2,2.1,1.4c0.1,0.1,2.4,1,2.4,0.7c-0.2-5.9-0.1-11.8,0.2-17.7
		c0.5-10.2,1.4-21,4.8-30.7c1.3-3.7,3.1-7.4,6.2-9.9c4.4-3.5,9.9-5.7,15.3-7.2c5.9-1.8,12-2.7,18.2-2.8c2.7-0.1,5.5,0.2,8.1,0.7
		c0.5,0.1,1,0.2,1.5,0.4l0.6,0.2l0.3,0.1c0.2,0.1-0.2-0.1,0.2,0.1c-0.1,0-0.4-0.2,0,0l-0.1-0.1c0.3,0.2-0.3-0.2,0,0l0.3,0.2l0.2,0.2
		c0.2,0.2,0.4,0.3,0.6,0.5c1.1,1.1,1.9,2.3,2.6,3.7c0.9,1.6,1.7,3.4,2.5,5.1c2,4.5,3.8,9.1,5.5,13.7c3.6,9.8,7,19.6,10.2,29.5
		c0.9,2.8,1.8,5.6,2.7,8.4c0.1,0.3,0.2,0.6,0.3,0.9c0,0.4,0.1,0.2-0.4,0.5c-1.4,1-2.8,1.9-4.3,2.7c-3.9,1.7-8.1,2.8-12.3,3.3
		c-5.1,0.7-10.3,1-15.5,1c-10.6,0-21.2-0.6-31.8-1.9c-6.4-0.7-12.9-1.6-19.3-2.7l-0.9-0.2c-1-0.2,0.4,0.8,0.6,0.9
		C213.6,231.9,214.7,232.3,215.8,232.6z"></path><path class="st2" d="M278.8,217.1l-0.9,14.8c0,1.1,0.4,2.1,1,2.9c0.2,0.5,0.5,0.9,0.9,1.2c0.1,0.1,0.5,0.4,0.5,0l0.9-14.8
		c0-1.1-0.4-2.1-1-2.9c-0.2-0.5-0.5-0.9-0.9-1.2C279.2,217,278.8,216.7,278.8,217.1L278.8,217.1z"></path><path class="st1" d="M228.1,200.3c0,0-3-9-6.7-6.5s1.9,19.7,7.7,15.8S228.1,200.3,228.1,200.3z"></path><path class="st2" d="M230.6,200.1c-0.4-1.1-0.8-2.1-1.3-3.1c-0.7-1.6-1.8-3-3.3-4c-2.1-1.1-5.7-0.9-7.4,1c-0.7,1.1-1.1,2.4-0.9,3.8
		c0.1,3.6,1.3,7.2,3.4,10.2c0.9,1.4,2.2,2.4,3.7,2.9c2.5,0.7,5.2,0.1,7.2-1.6c1-0.8,1.7-1.9,1.9-3.2c0.1-1.1-0.2-2.2-0.8-3.1
		c-0.7-1.2-1.6-2.3-2.6-3.1c-0.9-0.6-2.1-0.7-3.1-0.4c-0.3,0.1-2.4,0.7-1.6,1.3c1.7,1.3,3.7,3.8,3.1,6.1c-0.3,0.9-0.9,1.7-1.8,2.3
		l-0.3,0.2c0.1,0,0.3-0.2,0.1,0s-0.1,0-0.2,0.1s0.4-0.2,0.2-0.1h0.1c0.7-0.1-0.4,0.1,0.3-0.1s-0.4,0,0.4,0s-0.5-0.1,0.5,0
		c-0.4,0,0.1,0,0.1,0c-0.4-0.1-0.1-0.1-0.1,0c-0.2-0.1-0.5-0.3-0.7-0.4s0.2,0.1,0,0l-0.2-0.1l-0.3-0.3c-0.3-0.3-0.5-0.5-0.7-0.8
		c-1.9-2.5-3-5.4-3.4-8.5c-0.1-0.7-0.2-1.4-0.1-2.1c0-0.5,0.1-1.1,0.2-1.6c0.1-0.2,0.2-0.5,0.3-0.7c0.1-0.1,0.5-0.6,0.2-0.4
		c0.1-0.1,0.2-0.1,0.2-0.2c-0.3,0.2,0.3,0,0,0c-0.5,0.1-1,0.2-1.6,0.2c-0.2,0-0.3,0-0.5-0.1c0.1,0,0.4,0.2,0,0
		c0.6,0.3,1.1,0.8,1.5,1.4c0.5,0.7,1,1.4,1.3,2.2c0.5,0.9,0.8,1.8,1.2,2.7C226.1,202,231,201.1,230.6,200.1z"></path><path class="st1" d="M279.1,201c0,0,4.4-8.4,7.7-5.3s-5.1,19.1-10.2,14.3S279.1,201,279.1,201z"></path><path class="st2" d="M280.8,202.7c0.4-0.8,0.9-1.5,1.4-2.2c0.4-0.6,0.9-1.2,1.4-1.7c0.5-0.5,1.1-1,1.7-1.4c0.3-0.1-0.1,0,0.2-0.1
		c0.2,0,0.3-0.1,0.5-0.1c0.1,0,0.5,0,0.1,0c0.2,0,0.7,0.2,0.2,0c0.5,0.2-0.2-0.2,0,0c-0.5-0.4-0.3-0.2-0.2-0.1s-0.4-0.4-0.3-0.3
		c0.2,0.3-0.4-0.6-0.2-0.3c0,0.1,0.1,0.3,0-0.1c-0.3-0.6,0.1,0.5,0-0.1c-0.1-0.4,0,0.1,0,0.2s0,0.5,0,0c0,0.3,0,0.6,0,0.9
		c0,0.3-0.1,0.6-0.1,0.9c0,0.1,0,0.2,0,0.2c0,0.2,0-0.2,0,0s-0.1,0.4-0.1,0.6c-0.8,3-2.3,5.8-4.5,8.1c-0.5,0.5-1,0.9-1.5,1.2
		l-0.4,0.2c-0.1,0-0.5,0.2-0.2,0.1c-0.3,0.1-0.5,0.2-0.8,0.2h-0.4c-0.4,0,0.1,0.1-0.1,0c-0.1,0-0.3-0.1-0.4-0.1
		c-0.3,0,0.4,0.1-0.1,0c-0.3-0.1,0.3,0.3,0,0c-0.1-0.1-0.1-0.1-0.2-0.2c0,0,0.4,0.4,0.2,0.2c-0.1-0.1-0.2-0.2-0.3-0.3
		c0.1,0.1,0.3,0.4,0,0c-0.1-0.1-0.2-0.2-0.2-0.3c0.2,0.3,0.2,0.3,0.1,0.2c0-0.1-0.1-0.1-0.1-0.2c0,0.1,0.3,0.4,0.1,0.1s0,0.3,0,0
		c0-0.1,0-0.2,0-0.3c0.1,0.3,0,0.1,0-0.1s0-0.6,0-0.5s0-0.2,0-0.2s0.1-0.2,0.1-0.3c0.3-0.7,0.7-1.4,1.3-1.9c0.7-0.8,1.6-1.5,2.5-2
		c0.3-0.2,0.3-0.8,0.2-1.1c-0.1-0.6-0.4-1.1-0.8-1.6c-0.5-0.6-1.6-1.7-2.5-1.2c-2.6,1.5-5.1,4.3-4.4,7.5c0.5,1.7,1.4,3.2,2.6,4.4
		c0.8,0.9,1.8,1.5,2.9,1.9c1.5,0.3,3,0,4.1-1c1.4-1.1,2.6-2.5,3.5-4c1-1.6,1.8-3.2,2.3-5c0.6-1.6,0.8-3.3,0.5-5
		c-0.4-2.2-2.3-4.6-4.6-5c-2.1-0.3-3.8,1.4-5,2.9c-0.9,1.1-1.6,2.2-2.3,3.5C276.5,200.8,279.9,204.4,280.8,202.7z"></path><path class="st1" d="M242.3,220.9l-4.5,12.5c0,0,9,14.1,23.1,2.4l-0.2-10.6L242.3,220.9z"></path><path class="st2" d="M240.4,219.5l-3.4,9.3c-0.5,1.2-1,2.4-1.2,3.7c-0.2,1.4,0.9,2.6,1.8,3.6c2.5,3.1,6,5.4,9.9,6.3
		c2.6,0.5,5.3,0.3,7.8-0.6c1.6-0.5,3.1-1.3,4.5-2.2c0.8-0.5,1.5-1.1,2.2-1.7c0.6-0.5,1-1.2,0.9-2c-0.1-3.5-0.2-7-0.2-10.5
		c-0.1-1.3-1-2.3-2.3-2.6l-18.4-4.2c-1.2-0.3-1.8,1-1.7,2c0.1,1.3,1,2.3,2.3,2.6l18.4,4.2l-2.3-2.6l0.2,10.6l0.8-1.9
		c-2.5,2.3-5.6,3.8-9,4.4c-2.2,0.3-4.4-0.1-6.4-1.2c-0.8-0.4-1.5-0.9-2.1-1.4l-0.6-0.5c-0.1-0.1-0.7-0.6-0.2-0.1
		c-0.3-0.3-0.6-0.6-0.9-0.9s-0.8-0.9-1.1-1.3c-0.5-0.6,0.4,0.6-0.1-0.1l0.3,2.3l4.5-12.5c0.3-1.2-0.1-2.5-1.1-3.3
		C242.2,218.4,240.9,218.3,240.4,219.5z"></path><path class="st1" d="M227.6,196.6c0,0-1.5,27,18.2,34c24.6,8.7,37.2-18.9,36-39.8c0,0-19.1-4.3-22.6-16.2
		C259.3,174.5,238.8,198.5,227.6,196.6z"></path><path class="st2" d="M226.2,194.6c-0.1,3.7,0.2,7.4,0.9,11c1.3,7.7,4.9,14.9,10.2,20.6c5.7,6,14.6,9.2,22.9,7.7
		c7.8-1.5,13.6-7.4,17.2-14.1c4.4-8.4,6.5-17.8,5.9-27.2c-0.2-0.8-0.5-1.6-1-2.2c-0.3-0.5-1-1.7-1.6-1.8c-3.1-0.7-6.1-1.8-9-3.1
		c-2.5-1.1-4.9-2.6-7.1-4.3c-1-0.8-2-1.8-2.8-2.8l-0.4-0.6c-0.3-0.5-0.5-1.1-0.7-1.7c-0.1-0.4-2.3-4.3-2.8-3.8c-2.4,2.8-5,5.4-7.6,8
		c-4.6,4.5-9.7,9-15.4,12c-2.6,1.3-5.6,2.6-8.5,2.1c-0.6-0.1,0.4,1.6,0.4,1.8c0.3,0.6,1.2,2.3,2,2.4c5.6,0.9,11.4-3.3,15.6-6.5
		c4.9-3.8,9.4-8,13.6-12.6c0.9-1,1.8-2,2.7-3l-2.8-3.8c3.1,10.2,12.8,16.2,22.4,19.2c0.9,0.3,1.8,0.6,2.7,0.8l-2.6-4
		c0.4,8-1,16.1-4.1,23.5c-2.9,6.7-7.6,13.1-14.4,16.1c-7.2,3.2-16.3,1.8-22.8-2.7c-1.4-1-2.7-2.1-3.8-3.4c-0.8-0.9-1.5-1.9-2.1-3
		c-1.4-2.8-2.4-5.7-3.1-8.8c-0.9-3.9-1.3-8-1.1-12c0-0.9-0.9-2.1-1.4-2.8C227.5,195.6,226.2,194.1,226.2,194.6z"></path><path class="st2" d="M238.7,205c-0.1,0.8-0.1,1.6,0.1,2.3c0.1,0.7,0.4,1.3,0.7,1.9c0.2,0.4,0.5,0.7,0.9,1c0.4,0.3,0.8,0.6,1.2,0.8
		c0.7,0.3,1.5,0.5,2.3,0.6c0.9,0.1,1.9,0,2.8-0.2c0.5-0.1,1-0.4,1.2-0.9c0.2-0.4,0.2-0.9-0.1-1.3c-0.4-0.4-0.9-0.8-1.4-0.9l-0.7-0.1
		c-0.4-0.1-0.9,0-1.3,0.1h-0.1l0.6-0.1c-0.4,0.1-0.8,0.1-1.2,0.1h0.7c-0.2,0-0.5,0-0.7-0.1l0.6,0.1c-0.2,0-0.4-0.1-0.6-0.2l0.6,0.2
		c-0.2-0.1-0.4-0.2-0.5-0.2l0.5,0.3c-0.2-0.1-0.3-0.2-0.5-0.4l0.4,0.4c-0.2-0.2-0.4-0.5-0.5-0.7l0.2,0.4c-0.2-0.5-0.4-1.1-0.4-1.6
		v0.4c-0.1-0.5-0.1-1,0-1.6c0-0.5-0.2-0.9-0.6-1.2c-0.5-0.4-1.1-0.6-1.7-0.6C240.3,203.6,238.8,203.8,238.7,205L238.7,205z"></path><path class="st2" d="M258.6,170.6c0.6-0.9-0.2,0.2-0.3,0.4c-0.5,0.7-1,1.4-1.6,2.2c-1.8,2.3-3.7,4.5-5.7,6.6
		c-5.3,5.6-11.5,10.9-18.8,13.6c-4,1.6-8.3,1.9-12.5,1c-1-0.2-2.6,0-3.1,1.1s0.7,2,1.6,2.2c17,4,32.3-9.5,42.1-21.8
		c1.1-1.4,2.1-2.8,3.1-4.2c0.7-1-0.9-2-1.6-2.2C260.6,169.2,259.3,169.6,258.6,170.6L258.6,170.6z"></path><path class="st2" d="M224.8,192.6c11-3.2,24.4-7.8,29.5-19.1c1.1-2.5-3.7-3.7-4.7-1.4c-4.5,10.2-17.2,14.1-27,17
		c-1,0.3-1.5,1.2-1.3,2.2c0,0.1,0.1,0.3,0.2,0.4C222.2,192.7,223.6,193.1,224.8,192.6L224.8,192.6z"></path><path class="st2" d="M222.2,188.3c8.5-4.9,17.6-10.2,22.5-19.1c1.2-2.2-3.7-3.3-4.7-1.4c-4.5,8.3-13.1,13.2-21,17.8
		c-0.7,0.3-1,1.2-0.7,1.9c0.1,0.2,0.3,0.4,0.4,0.5C219.7,188.8,221.1,188.9,222.2,188.3L222.2,188.3z"></path><path class="st2" d="M263.5,176.3c4.3,4.6,9.9,7.9,16,9.6c1.1,0.3,2.7,0,3.1-1.1s-0.6-2.1-1.6-2.3c-0.7-0.2-1.3-0.4-2-0.6l-0.2-0.1
		l-0.5-0.2l-0.9-0.4c-1.3-0.5-2.5-1.2-3.7-1.9l-0.4-0.2c-0.3-0.2,0.2,0.1-0.1-0.1l-0.9-0.6c-0.5-0.4-1.1-0.8-1.6-1.2s-1-0.9-1.5-1.3
		c-0.2-0.2-0.5-0.4-0.7-0.6l-0.4-0.4c0,0-0.3-0.4-0.2-0.2c-0.8-1-2.2-1.3-3.4-0.8C263.6,174.2,262.6,175.4,263.5,176.3L263.5,176.3z
		"></path><path class="st1" d="M260.4,209.1c0,0,14.2-2.2,17.4-10.2s-6.8-8.4-15.4,0"></path><path class="st2" d="M260.7,210.8c5-0.7,9.9-2.6,14.1-5.4c2.9-2,5.6-5,6-8.7c0.3-1.5-0.3-3.1-1.4-4.2c-1.4-1.1-3.1-1.6-4.8-1.4
		c-5.4,0.1-10.5,3.4-14.2,7c-0.6,0.5-0.6,1.3-0.2,1.9c0.2,0.2,0.4,0.3,0.6,0.4c1.2,0.4,2.5,0.2,3.5-0.6c1.6-1.6,3.4-2.9,5.3-4
		c0.7-0.4,1.4-0.6,2.1-0.9l0.6-0.2c-0.5,0.1-0.1,0,0,0c0.5-0.1,0.9-0.2,1.4-0.3c-0.7,0.1,0.3,0,0.5,0s0.5,0.1,0,0l0.5,0.1
		c0.1,0,0.6,0.2,0,0l0.4,0.1c0.1,0,0.2,0.1,0.2,0.1c-0.5-0.2,0,0,0.1,0.1s0.3,0.4,0,0c0.1,0.1,0.2,0.2,0.2,0.3
		c0.1,0.1,0.1,0.2,0.2,0.3c0-0.1-0.1-0.4,0-0.1c0.1,0.3,0.1,0.6,0.2,0.8c0,0,0,0.5,0,0.2c0,0.2,0,0.3-0.1,0.5
		c-0.2,1.4-0.8,2.8-1.8,3.9l-0.1,0.1c-0.1,0.1-0.2,0.2-0.3,0.3c-0.3,0.3-0.5,0.5-0.8,0.8s-0.5,0.4-0.7,0.6c-0.5,0.4,0.4-0.2-0.1,0.1
		l-0.6,0.4c-0.6,0.4-1.2,0.8-1.8,1.1c-0.2,0.1-0.3,0.2-0.5,0.3s-0.7,0.3-0.1,0.1l-1,0.5c-1.2,0.5-2.5,1-3.8,1.4
		c-0.2,0.1-1.4,0.5-0.5,0.2c-0.3,0.1-0.5,0.1-0.8,0.2c-0.5,0.1-1,0.2-1.5,0.4s-0.9,0.2-1.4,0.3c-0.9,0.1-2.4,0.9-2.1,2.1
		S259.7,210.9,260.7,210.8L260.7,210.8z"></path><path class="st2" d="M222.5,215.5l-0.9,14.8c-0.1,1.1,0.7,2.1,1.8,2.2c0.1,0,0.1,0,0.2,0c1,0.1,2.8-0.4,2.9-1.7l0.9-14.8
		c0.1-1.1-0.7-2.1-1.8-2.2c-0.1,0-0.1,0-0.2,0C224.4,213.7,222.6,214.2,222.5,215.5L222.5,215.5z"></path><path class="st2" d="M265.4,191.8c0.2,0.7-0.2,1.5-0.9,1.7c-0.1,0-0.1,0-0.2,0c-1.5,0.2-1.8-1.6-0.5-2.2c0.5-0.3,1.2-0.2,1.6,0.3
		C265.3,191.7,265.3,191.8,265.4,191.8z"></path><path class="st2" d="M254.5,193.1c0.2,0.7-0.2,1.5-0.9,1.7c-0.1,0-0.1,0-0.2,0c-1.5,0.2-1.8-1.6-0.6-2.2c0.5-0.3,1.2-0.2,1.6,0.3
		C254.4,193,254.5,193,254.5,193.1z"></path><path class="st2" d="M181.4,281.5c0,0-26.7-12.7-14.9-25.5s48.8-26.2,81-28.7s94.9,21,91.1,35.6s-20.1,19.1-20.1,19.1l-25.1-13.4
		l-70.7,0.6l-21.3,12.7C194.7,283.1,187.9,282.9,181.4,281.5z"></path><path class="st2" d="M182.4,279.7l-0.3-0.1l-0.4-0.2c-0.6-0.3,0.4,0.2-0.1,0c-1-0.6-2.1-1.1-3.1-1.8c-2.8-1.6-5.4-3.6-7.7-5.8
		c-2.3-2.3-4.3-4.8-4.8-7.9c-0.2-1.4,0.1-2.8,0.7-4.1c0.9-1.6,2-2.9,3.4-4.1c3.1-2.7,6.5-5.1,10.2-7.1c4.6-2.6,9.3-4.8,14.2-6.7
		c11.7-4.6,23.8-8.1,36.1-10.3c5.9-1.1,12-1.9,18-2.3c3.9-0.2,7.8-0.1,11.6,0.2c9.2,0.9,18.3,2.6,27.3,5.1c9.1,2.4,18,5.6,26.5,9.4
		c3.6,1.6,7,3.4,10.4,5.4c1.5,0.9,3,1.9,4.4,2.9c0.6,0.4,1.1,0.8,1.7,1.3c0.3,0.2,0.6,0.5,0.9,0.8c0.5,0.4-0.2-0.2,0.1,0.1l0.5,0.4
		c1,0.9,1.9,1.8,2.7,2.9l0.2,0.2c0.3,0.4-0.2-0.4,0,0c0.1,0.2,0.3,0.5,0.5,0.7c0.3,0.4,0.5,0.9,0.7,1.3c0.2,0.5,0-0.3,0.1,0.3
		c0,0.2,0.1,0.4,0.1,0.6s0,0.5,0.1,0.7s0,0.4,0-0.2c0,0.1,0,0.3,0,0.5c-0.3,1.9-1,3.7-1.9,5.3c-2,3.6-4.9,6.7-8.3,9
		c-1.4,0.9-2.8,1.8-4.3,2.5c-0.6,0.3-1.2,0.6-1.8,0.8l-0.4,0.1l-0.8,0.3c-0.4,0.1-0.8,0.3-1.2,0.4l2.5,0.4
		c-8.2-4.4-16.5-8.8-24.7-13.1c-0.9-0.5-1.9-0.7-2.9-0.7h-3.5l-14.2,0.1l-37.6,0.4l-12.4,0.1c-0.7,0-1.5,0-2.2,0
		c-1.3,0.1-2.6,1.1-3.6,1.8l-15.3,9.1l-2.6,1.6c-0.2,0.1-0.5,0.3-0.8,0.5s-0.6,0.2,0.3-0.1h0.3l-0.6,0.1c-0.8,0.1-1.6,0.2-2.4,0.2
		c-2.4,0.2-4.7,0.3-7.1,0.2c-3-0.1-6-0.5-8.9-1.2c-1.2-0.3-2.4,0.4-2.8,1.6c-0.2,1.3,1.1,2.1,2.2,2.4c5.8,1.3,11.7,1.6,17.6,1.1
		c1.8,0,3.6-0.4,5.1-1.3l15.4-9.2l5-3l-1.2,0.3l23.9-0.2l38.1-0.4l8.7-0.1l-1.9-0.5l18.1,9.7c2.3,1.2,4.6,2.5,7,3.7s5.8-0.7,8-1.8
		c4.5-2.1,8.4-5.2,11.5-9c1.9-2.4,3.4-5.2,4.3-8.1c0.5-1.4,0.7-3,0.4-4.4c-0.7-3-2.8-5.5-4.9-7.5c-3.1-2.8-6.6-5.3-10.3-7.3
		c-9.7-5.4-20-9.6-30.7-12.8c-11.2-3.6-22.7-6-34.4-7.1c-13.3-1.1-26.6,0.8-39.6,3.8c-14.2,3.2-28.5,7.8-41.4,14.6
		c-4.9,2.4-9.5,5.5-13.6,9.1c-3.4,3.1-6,7.3-4.8,12c1.1,4.5,4.5,8,8,10.9c2.8,2.3,5.9,4.4,9.1,6.1c0.7,0.4,1.4,0.7,2.1,1.1
		c1.2,0.5,2.5,0.2,3.3-0.9C184.3,281.2,183.3,280.1,182.4,279.7z"></path><path class="st1" d="M199.9,261.7c0,0,13.5-18.5,21.2-17.1s14,35.2,10.8,36.1s-38.4,5.4-38.8,0.9S193.2,273.9,199.9,261.7z"></path><path class="st2" d="M202.1,262.2c1.9-2.6,4-5.1,6.2-7.4c1.8-2,3.8-3.9,5.9-5.7c0.9-0.8,1.9-1.5,2.9-2.1c0.5-0.3,0.9-0.5,1.2-0.7
		l0.7-0.3l0.4-0.1c-0.2,0.1-0.2,0.1,0,0s0.8-0.2,0.3-0.1c0.1,0,0.2,0,0.4,0h-0.2c0.4,0,0.4,0.2,0.2,0c0,0,0.2,0.1,0.2,0l-0.3-0.1
		l0.2,0.1c0,0,0.5,0.3,0.1,0c0.1,0.1,0.3,0.2,0.4,0.2c0.2,0.2,0.7,0.6,0.7,0.6c1.2,1.4,2.3,3,3,4.8c2,4.5,3.5,9.3,4.5,14.2
		c1,4.1,1.6,8.4,1.6,12.6c0,0.3,0,0.6-0.1,1c0,0.1,0,0.3,0,0.4c0-0.3,0,0-0.1,0.1c-0.1,0.2-0.2,0.4-0.2,0.5c0,0,0.3-0.2,0.1-0.1
		c0.1-0.1,0.8-0.6,1.1-0.5c-0.4,0-0.8,0.1-1.2,0.2l-1,0.2c-0.4,0.1,0.6-0.1,0,0l-0.6,0.1c-4.5,0.7-9,1.2-13.4,1.6
		c-2.6,0.2-5.3,0.4-7.9,0.5l-1.9,0.1h-0.6h-0.7c-1.1,0-2.3,0-3.4,0c-0.4,0-0.9,0-1.4-0.1l-0.6,0c-0.2,0-0.9-0.1-0.3,0
		c-0.4,0-0.7-0.1-1.1-0.2s-1.2-0.3-0.6-0.1c-0.2-0.1-0.8-0.3-0.6-0.2c0.4,0.2-0.7-0.4-0.1,0c0,0-0.2-0.2-0.1-0.2s0.1,0.3,0,0.1
		c-0.1-0.4-0.1-0.8-0.1-1.2c-0.2-4.5,1.8-8.7,3.8-12.6c1-1.9,2-3.8,3.1-5.7c0.5-1-1.3-1.4-1.9-1.4c-1,0-2.4,0.2-3,1.2
		c-2,3.5-3.8,7.1-5.4,10.8c-0.8,2-1.4,4.1-1.5,6.3c-0.1,1.4-0.3,3.4,0.8,4.4c1.3,0.9,2.7,1.4,4.2,1.4c5.1,0.7,10.4,0.3,15.5,0
		s10.4-0.9,15.6-1.6c1.7-0.2,3.5-0.5,5.2-0.8c1.3-0.2,2.6-0.7,3.1-2c0.4-1.5,0.5-3.1,0.3-4.6c-0.2-2.3-0.5-4.6-0.9-6.9
		c-0.9-5.4-2.3-10.8-4.3-15.9c-1.4-3.4-3.4-8.3-7.5-9.2c-5.6-1.2-10.9,3-14.7,6.5c-3.5,3.3-6.7,6.9-9.6,10.7
		c-0.2,0.2-0.4,0.5-0.5,0.7C196.4,263.2,201.2,263.5,202.1,262.2z"></path><path class="st1" d="M312.3,260.8c0,0-13.5-18.5-21.2-17.1s-14,35.2-10.8,36.1s38.4,5.4,38.8,0.9S319.1,273,312.3,260.8z"></path><path class="st2" d="M314.5,261.2c-2.2-2.9-4.5-5.7-7-8.3c-4-4.2-8.7-8.6-14.4-10c-2-0.5-4.2-0.7-5.9,0.7c-1.4,1.3-2.6,2.8-3.4,4.5
		c-2.3,4.8-4,9.8-5,15c-1,4.4-1.9,9-1.7,13.5c0.1,1.5,0.3,2.6,1.6,3.4c1.5,0.8,3.2,1.2,4.9,1.4c4.7,0.8,9.4,1.3,14.1,1.7
		c5.3,0.6,10.7,0.8,16.1,0.7c1.8,0,3.7-0.2,5.5-0.6c1.3-0.4,2.1-0.8,2.2-2.2c0.4-4.8-1.5-9.1-3.6-13.4c-1-2-2.1-4.1-3.2-6.1
		c-0.7-0.8-1.6-1.4-2.7-1.6c-0.2-0.1-2.4-0.4-2,0.3c1.9,3.3,3.6,6.7,5.1,10.2c0.8,1.9,1.4,3.9,1.7,6c0.1,1,0.4,3-0.2,3.9
		c-0.3,0.2-0.6,0.4-1,0.6c-0.6,0.2-1.2,0.3-1.8,0.4c-4.4,0.5-8.9,0.5-13.3,0c-4.9-0.3-9.7-0.8-14.5-1.5c-1.7-0.2-3.3-0.5-5-0.7
		l-0.7-0.1l-0.3-0.1c-0.4-0.1,0.6,0.2,0.2,0H280c0.7,0.2,1.4,0.6,2.1,1c0.1,0,0.2,0,0.1,0.2c0-0.1-0.2-0.4-0.2-0.6
		c-0.3-1.4-0.3-2.8-0.1-4.2c0.2-2.1,0.4-4.3,0.8-6.4c0.8-5,2.2-10,3.9-14.8c0.7-2.1,1.7-4.1,2.8-6c0.7-1.4,1.8-2.5,3.1-3.2
		c0.2-0.1,0.4-0.2,0.6-0.2c0.1,0,0.2,0,0.4,0c0.4,0,0-0.1,0.5,0.1c-0.6-0.1,0.4,0.1,0,0s0.4,0.1,0.5,0.2c-0.6-0.2,0.3,0.1,0.4,0.2
		l0.1,0.1l0.3,0.2c2.1,1.3,4.1,2.9,5.9,4.7c3.1,3,5.9,6.3,8.5,9.7l0.5,0.6c0.8,0.8,1.9,1.3,3.1,1.4
		C313.8,262,315.1,262.1,314.5,261.2z"></path><path class="st1" d="M314.4,274.3c0,0,17-20.6,12.8-24.6s-17.7,10.3-17.7,10.3"></path><path class="st2" d="M316.3,274.2c4.5-5.5,9.1-11.5,12.2-18c1-2.1,3.2-6.8,0-8.3c-1.8-0.9-4.1-0.1-5.9,0.6
		c-2.4,1.1-4.7,2.5-6.8,4.1c-3,2.3-5.8,4.8-8.4,7.6c-0.7,0.7-0.2,1.3,0.7,1.3c1.2-0.1,2.3-0.7,3.2-1.6c0.1-0.2,0.3-0.3,0.5-0.5
		s0.3-0.3,0.5-0.5l0.4-0.4l0.1-0.1c1.4-1.3,2.8-2.6,4.2-3.8l1.2-1c0.5-0.4,0.8-0.6,1.1-0.8s0.8-0.6,1.2-0.8l0.7-0.4l0.3-0.2
		c0.4-0.2-0.3,0.2,0,0s0.8-0.4,1.2-0.6c-0.4,0.2-0.1,0,0.1,0l0.3-0.1c0.3-0.1-0.4,0.1,0,0l0.5-0.1c-0.4,0.1,0,0,0.1,0l0.5,0.1
		c1.1,0.4,1.3,1.3,1.2,2.4c-0.2,1.5-0.7,3-1.5,4.4c-1.9,3.8-4.1,7.3-6.6,10.7c-1.6,2.2-3.3,4.4-5,6.5c-0.6,0.8-0.3,1.3,0.7,1.3
		C314.4,275.7,315.5,275.2,316.3,274.2L316.3,274.2z"></path><polygon class="st0" points="203.6,223.4 306,222 296.3,286.9 211.8,286.9 	"></polygon><path class="st0" d="M203.8,225.5l10.2-0.1l24.4-0.3l29.6-0.4l25.6-0.3l8.4-0.1c1.3,0,2.7,0.1,4,0h0.2l-2.5-2.9l-3.3,22l-5.2,34.9
		l-1.2,8l2.1-1.3h-84.5l2.6,2.4l-2.8-21.4l-4.5-34.3l-1-7.8c-0.2-1.3-1.3-2.2-2.6-2.4c-1-0.2-2,0.5-2.1,1.5c0,0.1,0,0.3,0,0.4
		l2.8,21.3l4.5,34.3l1,7.8c0.2,1.3,1.3,2.2,2.5,2.4h84.5c0.9,0,2-0.3,2.1-1.4l3.3-22l5.2-34.9l1.2-8c0.1-1.5-1-2.8-2.5-2.9
		c0,0,0,0,0,0l-10.2,0.1l-24.5,0.3l-29.6,0.4l-25.6,0.3l-12.5,0.2h-0.2C200.1,221.3,201,225.5,203.8,225.5z"></path><path class="st1" d="M253.3,249.6c0.2-0.1,0.4-0.1,0.5-0.2c0.4-0.1-0.4,0.1-0.2,0l0.3-0.1l0.8-0.2c0.3-0.1,0.6-0.1,0.9-0.1h0.4
		c0.2,0,0.5,0-0.2,0h0.3c0.3,0,0.6,0,1,0.1s0.5,0.1-0.3-0.1l0.2,0.1c0.2,0,0.4,0.1,0.6,0.2c0.4,0.1-0.7-0.3-0.3-0.1l0.2,0.1l0.2,0.1
		c0.2,0.1,0.3,0.3-0.3-0.2c0.1,0.1,0.3,0.2,0.4,0.3c0.3,0.2-0.5-0.5-0.2-0.2c0.1,0.1,0.2,0.2,0.3,0.3c0.4,0.4-0.3-0.5,0,0
		c0.1,0.2,0.2,0.4,0.3,0.5c0.2,0.4-0.2-0.5,0-0.1l0.1,0.4c0.1,0.3,0.2,0.5,0.2,0.8c0,0.1,0.1,0.3,0.1,0.4v-0.2c0,0.1,0,0.2,0,0.2
		c0,0.2,0,0.5,0,0.7c0,0.2,0,0.4-0.1,0.7s0-0.1,0-0.1s-0.1,0.4-0.1,0.4c-0.1,0.2-0.2,0.4-0.3,0.6c-0.1,0.2-0.2,0.4-0.3,0.5
		c0.1-0.3,0.1-0.2,0,0l-0.1,0.2c-0.2,0.2-0.4,0.3-0.5,0.5l-0.2,0.2c-0.3,0.2,0.4-0.2-0.1,0c-0.2,0.1-0.4,0.2-0.6,0.3
		c-0.1,0-0.2,0.1-0.3,0.1l-0.2,0.1l0.2-0.1c-0.3,0-0.5,0.1-0.8,0.2h-0.4l0,0c-0.3,0-0.5,0-0.8,0s-0.3,0-0.4,0c0.8,0,0.2,0,0,0
		l-0.4-0.1c-0.2-0.1-0.8-0.3,0,0c-0.6-0.3-1.2-0.4-1.8-0.3c-0.5,0.1-0.9,0.3-1.2,0.8c-0.4,1,0.6,2.2,1.6,2.6c2.6,1,5.6,1.3,8.2-0.1
		c2.1-1.1,3.4-3.3,3.4-5.6c0-1.4-0.4-2.7-1.1-3.9c-0.7-1.2-1.7-2.1-3-2.8c-1.9-1-4-1.3-6.1-1c-1.1,0.1-2.3,0.4-3.3,0.8
		c-1.1,0.4-0.9,1.8-0.2,2.5C250.7,249.6,252.1,250,253.3,249.6L253.3,249.6z"></path><path class="st1" d="M196.8,276.9c0,0-14.8-20.2-10.2-24.5s16.6,9.7,16.6,9.7"></path><path class="st2" d="M199.1,276.1c-3.7-4.9-6.8-10.1-9.4-15.7c-0.7-1.5-1.2-3-1.5-4.6c0-0.3-0.1-0.7-0.1-1c0-0.1,0-0.6,0-0.1
		c0-0.1,0-0.3,0.1-0.4l0.1-0.4c0.1-0.4-0.2,0.4,0,0c0.1-0.1,0.1-0.2,0.2-0.3l-0.1,0.1c0.1-0.1,0.1-0.1,0.2-0.2c0.1,0.4-0.5,0,0,0
		s-0.5,0.2,0,0s-0.6,0.1,0,0s-0.5-0.1,0,0c0.2,0,0.3,0,0.5,0.1c-0.6-0.1,0,0,0.1,0.1l0.6,0.2c0.2,0.1,0.2,0.1,0,0l0.4,0.2
		c1.7,0.8,3.2,1.8,4.6,3.1c2.3,1.9,4.5,4.1,6.5,6.4c1.6,1.8,5.9-0.3,4-2.5c-1.9-2.2-3.9-4.2-6.1-6.1c-3.2-2.7-7.6-6.2-12.1-4.8
		c-4,1.2-4.2,5.2-3.1,8.6c1.4,4.2,3.4,8.2,5.8,11.9c1.5,2.5,3.1,4.9,4.8,7.3c0.8,1,2.1,1.3,3.2,0.9
		C198.6,278.3,199.9,277.1,199.1,276.1L199.1,276.1z"></path></g><g id="character-2"><path class="st1" d="M450.5,419c17-1.6,38.9-1.2,32.2-23.9c-13.5-45.6-70.7-103.1-89.9-83.6c-51.7,53-72.5,55.1-72.5,55.1"></path><path class="st2" d="M450,420.7c5.1-0.5,10.2-0.7,15.3-1.5c4.9-0.7,9.9-1.9,14-4.6c3.8-2.4,6.4-6.4,6.9-10.8
		c0.6-5.6-1.5-11.3-3.5-16.4c-4.4-11.3-10.2-22-17.2-31.9c-6.9-10.1-14.9-19.5-23.7-28c-7.4-7-15.5-13.7-24.8-18
		c-6.6-3.1-14.5-5.1-21.4-1.7c-1.6,0.8-3.1,1.9-4.4,3.1c-3,3-5.9,6-8.9,9c-5.4,5.3-11,10.5-16.6,15.5c-7.9,7.1-16.2,13.6-24.9,19.6
		c-0.8,0.5-1.6,1-2.4,1.6l-1.2,0.7l-0.7,0.5c-1.3,0.8-2.7,1.6-4.1,2.4c-2.1,1.1-4.2,2.2-6.4,3.2l-0.6,0.3c0.7-0.3,0.3-0.1-0.1,0
		l-1.1,0.4c-0.6,0.2-1.2,0.4-1.8,0.6l-0.7,0.2l-0.3,0.1c-0.5,0.1,0.1-0.1,0.3-0.1c-0.1,0-0.6,0.1-0.7,0.1h-0.2
		c-1.2,0.1-2.3,0.9-2.8,2c-0.3,1.1,0.8,1.4,1.7,1.3c1.5-0.2,3-0.6,4.4-1.2c4.4-1.6,8.6-3.7,12.6-6.1c7.5-4.6,14.7-9.7,21.5-15.3
		c10.9-8.9,21.3-18.4,31.2-28.4c1.5-1.5,3.1-3.1,4.6-4.7l1.1-1.1c0.3-0.3-0.3,0.2,0,0l0.5-0.4c0.2-0.1,1-0.6,0.6-0.5
		s0.1-0.1,0.2-0.1l0.6-0.3l0.5-0.2c-0.3,0.2-0.4,0.1,0,0l1.1-0.3l0.2-0.1c0.3-0.1-0.5,0.1-0.1,0l0.5-0.1c0.4-0.1,0.8-0.1,1.1-0.2
		l0.6,0c-0.4,0-0.1,0,0.1,0c0.4,0,0.8,0,1.2,0c1.6,0,3.1,0.3,4.7,0.7c8.6,2.2,16.2,7.6,23,13.1c8.9,7.4,17,15.7,24.1,24.8
		c7.6,9.5,14.1,19.8,19.5,30.6c2.5,5.1,4.7,10.3,6.4,15.7c1.5,4.5,2.8,10,0.6,14.6c-0.1,0.1-0.4,0.7-0.6,1c-0.2,0.3-0.4,0.6-0.7,0.9
		c-0.3,0.4-0.6,0.7-1,1c0.3-0.3-0.2,0.1-0.3,0.2s-0.4,0.3-0.6,0.5s-0.7,0.4-0.5,0.3s-0.3,0.2-0.4,0.2c-0.5,0.3-0.9,0.5-1.4,0.7
		c-0.1,0-0.5,0.2-0.2,0.1h-0.1l-0.7,0.2c-0.5,0.2-1.1,0.4-1.6,0.5c-4.3,1.3-9.4,1.8-14.1,2.2c-2.4,0.2-4.9,0.4-7.3,0.6
		c-1.2,0.1-2.3,0.9-2.8,2C448,420.5,449.1,420.8,450,420.7L450,420.7z"></path><path class="st2" d="M443.9,320.5c0,0-71.5-2.5-83.3-22c0,0,17.5-49.6,29-55c20.6-9.7,50,5,52.9,18.7
		C448.3,290.4,443.9,320.5,443.9,320.5z"></path><path class="st2" d="M442.1,319.2c-8-0.3-16.1-1-24.1-1.9c-7.3-0.8-14.6-1.9-21.8-3.3c-3.6-0.7-7.1-1.5-10.6-2.5
		c-1.7-0.5-3.5-1-5.2-1.5c-1.6-0.5-3.1-1-4.4-1.5c-0.9-0.3-1.7-0.7-2.5-1l-1.2-0.5c-0.6-0.3,0.3,0.1-0.1,0l-0.7-0.3
		c-0.8-0.4-1.5-0.8-2.2-1.2c-0.6-0.3,0.3,0.2,0,0l-0.6-0.4c-0.3-0.2-0.7-0.4-1-0.6l-0.3-0.2c-0.5-0.4,0,0-0.3-0.2s-0.6-0.4-0.9-0.7
		s-0.6-0.5-0.8-0.7c0.3,0.3-0.4-0.4-0.5-0.5c-0.9-0.8-1.6-1.8-2.3-2.8l0.1,0.5c2.3-6.6,4.9-13.1,7.7-19.6c2.3-5.6,4.8-11.1,7.5-16.5
		c2.3-4.8,5.1-9.4,8.2-13.8c1.1-1.6,2.5-3,4-4.2c2.2-1.7,5.2-2.5,7.9-3.1c7.5-1.5,15.3-1,22.5,1.6c6,2.1,11.9,5.4,16.1,10.3
		c1.7,1.9,2.9,4.3,3.5,6.8c1.1,5,1.8,10.2,2.2,15.3c1.3,14,1.1,28.1-0.7,42.1c0,0.2-0.1,0.5-0.1,0.7c-0.2,1.4,4.3,3,4.4,2.3
		c1.2-8.9,1.7-17.8,1.5-26.8c0-8.4-0.6-16.7-1.8-25c-0.5-3.2-0.8-6.6-2.1-9.6c-1-2.2-2.4-4.2-4.1-6c-4.3-4.5-9.5-8-15.2-10.4
		c-6.1-2.8-12.6-4.5-19.3-4.9c-5.9-0.3-12.8,0.4-18,3.4c-2.9,1.6-5,4.6-6.8,7.2c-5.5,8.1-9.6,17.2-13.5,26.2
		c-2.9,6.7-5.6,13.5-8.1,20.4c-0.2,0.4-0.3,0.8-0.4,1.2c0,0.6,0.9,1.5,1.2,2c0.6,0.7,1.2,1.4,1.8,2c3,2.8,6.5,5,10.2,6.7
		c8.8,4.2,18.4,6.6,28,8.5s19,3.1,28.6,4c5.5,0.5,11.1,1,16.7,1.2h0.8c1.1,0,0-1.1-0.3-1.4C444.4,319.8,443.3,319.3,442.1,319.2z"></path><path class="st1" d="M436.3,278.6c-8.9-5.5-20.1-12.6-21.8-23.8c-0.3-1.2-1.2-2.2-2.5-2.5c-0.7-0.2-1.5,0.2-1.7,0.9
		c-0.1,0.2-0.1,0.5,0,0.7c1.9,13,14.3,21.5,24.6,27.9c0.8,0.5,2.1,0.9,2.7-0.2S437.1,279.2,436.3,278.6L436.3,278.6z"></path><path class="st1" d="M440.4,275.4c-6.4-6.5-13.5-13.6-15.6-22.8c-0.2-1-1.2-2.3-2.4-2.2s-1.2,1.6-1,2.5
		c2.4,10.5,10.2,18.7,17.6,26.1c0.5,0.6,1.4,0.8,2,0.3c0.2-0.1,0.3-0.3,0.4-0.5C441.9,277.6,441.2,276.2,440.4,275.4L440.4,275.4z"></path><path class="st1" d="M371.2,295c-6.8-13.2,16.1-40.2,16.1-40.2c5.8,0.6,16.4-1.8,16.4-1.8c-7.8,15.9,10.5,26.4,10.5,26.4
		c6.7-7.8,16.3-1.4,13,7.2s-12,7.1-12,7.1s-2.1,23.1-4,26.4c0,0-17.3,5.7-22.6-9.7C388.6,310.4,375.8,304,371.2,295z"></path><path class="st2" d="M373.4,295.5c-3-5.9,0.2-13.6,2.8-19.1c3-6,6.6-11.8,10.7-17.1c0.9-1.2,1.8-2.3,2.7-3.4l-0.9,0.3
		c5.6,0.5,11.5-0.6,16.9-1.9l-4.1-2.3c-2.6,5.2-2.5,11.3,0.2,16.4c2.2,3.8,5.2,7.2,8.8,9.7c0.9,0.7,1.8,1.3,2.7,1.8
		c0.7,0.4,2.5,1.2,3.3,0.4c1.6-1.9,4.2-3.5,6.6-3.2c0.1,0,0.2,0,0.3,0.1c0.3,0.3,0.6,0.5,0.9,0.9c0.7,1,1.2,2.1,1.3,3.3
		c0.6,5.1-3.4,10-8.3,10.8c-0.7,0.1-1.4,0.2-2.2,0.2c-0.3,0-0.5,0-0.8,0s0.6,0.1,0.2,0c-0.2,0-1.4-0.2-1.5,0.2
		c-0.7,7.3-1.4,14.6-2.7,21.8c-0.2,1.6-0.6,3.2-1.3,4.6l0.5-0.3c-1.4,0.4-2.8,0.7-4.2,0.9c-1.3,0.2-2.7,0.2-4,0.1
		c-0.7,0-1.4-0.1-2.1-0.3c-0.6-0.1-1.1-0.3-1.6-0.5l-0.6-0.3c-0.7-0.3,0.4,0.2-0.3-0.1l-0.4-0.2c-0.7-0.4,0.3,0.2-0.3-0.2
		c-0.7-0.5-1.3-1-1.9-1.7c-0.7-0.7-1.2-1.6-1.7-2.4c-0.6-1-0.8-2.3-1.4-3.2c-0.5-0.8-1.8-1.3-2.6-1.8c-1.5-0.9-2.6-1.5-3.9-2.4
		C380,303.6,375.9,300.1,373.4,295.5c-0.5-1-2-1.5-3-1.7c-0.6-0.1-1.8-0.1-1.3,0.8c2.5,4.8,6.7,8.5,11,11.6c2.4,1.8,5,3.4,7.6,4.8
		l-1.3-1.3c1.8,5.5,6.2,9.8,11.6,11.6c3.9,1.3,8.1,1.6,12.1,0.8c0.9-0.1,1.8-0.3,2.7-0.6c1-0.4,1.2-1.7,1.4-2.7
		c1-4.5,1.7-9.1,2.1-13.7c0.4-3.5,0.8-6.9,1.1-10.4L416,295c4.2,0.8,8.5-0.6,11.4-3.8c2.1-2.5,3.4-6.3,2.4-9.6s-4-5.6-7.3-6.6
		c-4.1-1.2-7.9,0.2-10.7,3.4l3.3,0.4c-0.2-0.1-0.8-0.5,0,0c-0.4-0.3-0.8-0.5-1.2-0.8c-1.3-0.9-2.5-1.9-3.5-3
		c-3.3-3.1-5.5-7.2-6.2-11.6c-0.3-3.2,0.3-6.5,1.8-9.4c0.3-0.6-1-1.4-1.3-1.6c-0.8-0.5-1.8-0.8-2.8-0.7c-4.3,1.1-8.7,1.7-13.1,1.9
		c-1,0-3.1-0.4-3.9,0.2c-0.1,0.1-0.2,0.2-0.3,0.4c-0.7,0.8-1.3,1.7-2,2.5c-5.5,7.1-10.7,15-13.6,23.6c-1.5,4.6-2.3,9.7-0.1,14.2
		c0.5,0.9,2,1.5,3,1.7C372.7,296.4,373.9,296.4,373.4,295.5z"></path><path class="st1" d="M387.8,273.6c-3.8,1.5-7.9,2.4-12,2.7c-13.8,1.3-15.8,5.9-11.7,8.9s22.8,2.3,22.8,2.3"></path><path class="st2" d="M386.5,271.8c-0.4,0.2,0.4-0.1,0.3-0.1c-0.3,0.1-0.6,0.2-0.8,0.3c-0.9,0.3-1.9,0.6-2.9,0.9
		c-3.2,0.7-6.5,1.3-9.8,1.6c-3,0.3-6,1.1-8.8,2.3c-1.7,0.7-3.1,1.9-4.1,3.4c-1.7,3.2,0.8,6.5,3.8,7.6c4.1,1.6,8.8,1.7,13.1,1.9
		c3.2,0.1,6.5,0.1,9.8,0c1.2,0.1,2.3-0.8,2.4-2c0.1-1.2-0.8-2.3-2-2.4c-0.2,0-0.4,0-0.6,0c-2.4,0.1-4.8,0.1-7.2,0.1
		c-3.9,0.1-7.8-0.2-11.6-1l-1.1-0.3c-0.6-0.2,0.5,0.2-0.1,0c-0.1-0.1-0.3-0.1-0.5-0.2s-0.9-0.6-0.4-0.1c-0.3-0.2-0.5-0.4-0.8-0.7
		c0.5,0.5,0-0.1-0.1-0.2c-0.1-0.1-0.1-0.2-0.2-0.3c0.3,0.5,0.1,0.2,0.1,0.1c-0.3-0.6,0,0.3-0.1-0.2c0-0.7-0.2,0.3,0-0.3
		c0.1-0.2,0.2-0.4,0,0.1c0.1-0.1,0.1-0.2,0.2-0.3c0.1-0.1,0.4-0.4,0,0c0.1-0.1,0.2-0.2,0.3-0.3l0.4-0.3c-0.5,0.4,0,0,0.1-0.1
		c0.4-0.2,0.9-0.5,1.3-0.7c0.9-0.4,1.8-0.7,2.8-0.9c1.3-0.3,2.6-0.6,4-0.8c5.2-0.7,10.5-1.2,15.4-3.3c1-0.5,1.5-1.6,1-2.6
		c-0.1-0.1-0.1-0.2-0.2-0.4C389.1,271.4,387.7,271.2,386.5,271.8L386.5,271.8z"></path><path class="st2" d="M396.2,272.5c-1-0.2-2,0.5-2.2,1.5c0,0.1,0,0.2,0,0.3c-0.1,2.1,2.5,2.2,3.1,0.5c0.4-0.8,0.1-1.7-0.7-2.2
		C396.4,272.6,396.3,272.5,396.2,272.5z"></path><path class="st2" d="M383.2,267.4c-1-0.2-2,0.5-2.2,1.5c0,0.1,0,0.2,0,0.3c-0.1,2.1,2.5,2.2,3.1,0.5c0.4-0.8,0.1-1.7-0.7-2.2
		C383.4,267.4,383.3,267.4,383.2,267.4z"></path><path class="st1" d="M421.5,297.5c-0.6,6-0.9,12.1-1.1,18.2c0,1.7,4.4,3.8,4.5,2c0.1-6.1,0.5-12.1,1.1-18.2
		C426.2,297.8,421.7,295.6,421.5,297.5z"></path><path class="st1" d="M429.1,300l6.3,8.1c0.3,0.3,0.6,0.5,0.9,0.7c0.5,0.3,1.1,0.6,1.7,0.9c0.4,0.2,0.9,0.4,1.4,0.5
		c0.1,0,0.5,0.1,0.4-0.1l-6.3-8.1c-0.3-0.3-0.6-0.5-0.9-0.7c-0.5-0.3-1.1-0.6-1.7-0.9c-0.5-0.2-0.9-0.4-1.4-0.5
		C429.3,299.9,428.9,299.8,429.1,300L429.1,300z"></path><path class="st1" d="M439.1,292.3c-0.3,0,0.7,0.1,0.3,0h-0.2c-0.3,0-0.8-0.2,0,0c-0.4-0.1-0.9-0.2-1.3-0.3l-0.6-0.2l-0.4-0.1h-0.1
		c0.4,0.1,0,0-0.1,0l-0.4-0.2l-0.8-0.4c-0.5-0.2-1.1-0.5-1.6-0.8c-0.3-0.1-0.6-0.3-0.9-0.5c-0.1-0.1-0.3-0.1-0.4-0.2
		c0.5,0.4,0,0-0.1,0c-0.5-0.3-1.1-0.7-1.6-1l-0.7-0.5l-0.4-0.3c0.3,0.2,0.1,0.1,0,0c-0.9-0.9-2.2-1.2-3.4-1c-0.9,0.3-1.4,1.3-0.6,2
		c2.3,2,4.9,3.6,7.7,4.8c2.3,1.1,4.8,1.8,7.3,2c0.9,0,2-0.8,1.4-1.7C441.5,292.9,440.3,292.3,439.1,292.3L439.1,292.3z"></path><path class="st2" d="M394.5,294.5c0.6-0.6,9-8.7,9-8.7s4.7,2.4,0.9,8.1S394.5,294.5,394.5,294.5z"></path><path class="st2" d="M396.6,295.1c2.6-2.6,5.3-5.1,7.9-7.7l1.1-1l-3.9,0.8c0.2,0.1,0.3,0.2,0.5,0.3l0.2,0.1
		c0.3,0.3-0.3-0.2-0.1-0.1s0.4,0.4,0.5,0.6s0.2,0.5,0.4,0.6c-0.3-0.3-0.1-0.3-0.1-0.1s0.1,0.2,0.1,0.2c0.1,0.2,0.1,0.3,0.1,0.5
		c0,0.1,0.1,0.3,0.1,0.5s-0.1,0.2,0-0.1c0,0.1,0,0.2,0,0.3c0,0.4-0.1,0.8-0.2,1.2c-0.1,0.4,0.1-0.4,0,0l-0.1,0.3
		c-0.1,0.3-0.2,0.5-0.4,0.8c-0.1,0.2-0.2,0.5-0.4,0.7c0,0-0.3,0.5-0.1,0.2l-0.3,0.4c-0.2,0.2-0.4,0.5-0.6,0.7s-0.2,0,0.1-0.1
		c-0.1,0.1-0.2,0.2-0.3,0.3l-0.3,0.2c-0.1,0.1-0.3,0.1,0.2-0.1c-0.1,0-0.2,0.1-0.3,0.2s-0.6,0.2-0.1,0.1s-0.2,0-0.3,0.1
		c-0.4,0.1,0.6-0.1,0.3,0c-0.1,0-0.2,0-0.3,0h-0.3c-0.3,0,0.3,0,0.3,0s-0.6,0-0.7-0.1h-0.2c-0.4,0,0.5,0.1,0.2,0l-0.5-0.1
		c-0.4-0.1-0.7-0.2-1.1-0.4c-0.3-0.1,0.4,0.2,0.2,0.1l-0.3-0.1l-0.4-0.2c-0.3-0.1-0.5-0.3-0.8-0.5c-0.2-0.1-0.4-0.3-0.6-0.5
		c-0.5-0.3-1.1-0.4-1.6-0.3c-0.7,0.1-1.3,0.3-1.8,0.7c-0.4,0.3-0.7,0.8-0.8,1.3c0,0.5,0.2,0.9,0.6,1.2c0.7,0.6,1.6,1.1,2.5,1.5
		c2,1,4.3,1.2,6.5,0.6c2.8-0.9,5-3,6-5.7c0.9-1.9,0.8-4-0.2-5.9c-0.5-0.9-1.2-1.6-2.1-2.1c-1.3-0.6-2.9-0.3-3.9,0.8l-7.6,7.4
		c-0.5,0.4-0.9,0.9-1.4,1.3c-0.5,0.5-0.5,1.4,0,1.9c0.2,0.2,0.4,0.3,0.7,0.4C394.4,296.4,395.7,296.1,396.6,295.1z"></path><path class="st1" d="M322,364.9l-1-6.6c0,0-19.9-8.3-27.1-22.1c0,0-8.4-2.6-7.5-7s5.6-3,5.6-3s2.8-2.8,8,2.8c0,0,34.2-0.1,35.3-1
		s5.4-7.7,12.3-10.6s9.8,2.3,6.4,5.8c-2.4,2.5-4.6,5.2-6.6,8c0,0,6,10.1-1.7,18.1l2,7.4C347.8,356.7,339.1,364.7,322,364.9z"></path><path class="st2" d="M324.4,364l-0.8-4.8c-0.1-0.8,0-1.6-0.7-1.9c-3-1.4-6-3-8.9-4.7c-4.7-2.8-9-6.3-12.8-10.3
		c-1-1.1-1.9-2.2-2.8-3.4c-0.4-0.6-0.8-1.1-1.2-1.8c-0.3-0.7-0.6-1.3-1.1-1.8c-0.3-0.2-0.7-0.3-1.1-0.4c-0.9-0.3-1.7-0.7-2.6-1.2
		c-1.8-1-4.1-2.7-3.8-5.1c0.1-0.8,0.4-1.5,0.8-2.1c0.1-0.1,0.2-0.2,0.3-0.4l0.1-0.1l-2.5,1c0.2,0,0.4,0,0.6,0c0.6,0,1.1,0.1,1.7,0.2
		c0.6,0.2,1.8-0.5,2.3-0.7c0.8-0.2,1.5-0.6,2.1-1.1c0-0.1,0.2-0.2-0.1,0c0.1-0.1,0.2-0.1,0,0c-3.3,1.9-3.2,0.7-1.3,1.2
		c0.8,0.2,1.6,0.6,2.4,1.1c0.5,0.3,0.9,0.7,1.3,1.1c0.4,0.3,0.8,1,1.2,1.2c0.3,0,0.6,0,0.9,0h2.2c5.6,0,11.2-0.1,16.9-0.2
		c4.9,0,9.7-0.1,14.5-0.6c2.3-0.2,4.5-1.3,6.1-3c2.2-3,4.9-5.5,7.9-7.7c0.5-0.2,1.1-0.5,1.5-0.9h0.1c-0.5,0.2-0.5,0.2-0.1,0.1
		s0.7-0.1,1-0.1c0.9-0.1,1.8,0.2,2.6,0.6c1.2,0.8,1.8,2.3,1.5,3.7c-0.4,1-1,1.9-1.8,2.6c-1,1.1-2,2.2-2.9,3.4
		c-1.1,1.3-2.1,2.6-3.2,4l0,0.1c1.3,2.3,2.1,5,2.2,7.6c0.2,2.5-0.3,5-1.5,7.2c-0.4,0.7-0.8,1.3-1.3,1.9c-0.3,0.4-1,0.9-1.1,1.4
		c-0.1,0.3,0.2,0.8,0.3,1.1l1.3,4.9c0.2,0.4,0.3,0.9,0.4,1.4c0-0.1,0-0.1-0.1,0.1c-0.5,0.5-1.1,0.9-1.8,1.3c-1.1,0.8-2.3,1.4-3.5,2
		l-0.8,0.3c-0.5,0.2-0.7,0.3-1.3,0.5c-1.2,0.4-2.4,0.7-3.6,1c-3.3,0.8-6.6,1.2-10,1.2c-1,0.1-2,0.4-2.9,0.9
		c-0.5,0.1-0.9,0.4-1.3,0.7c0,0-0.5,0.3-0.1,0.3c7.6-0.1,15.1-1.8,22-5c3-1.2,5.8-2.9,8.2-5l0-0.1l-1.2-4.4
		c-0.2-0.8-0.5-1.7-0.7-2.5c0-0.3-0.1-0.3,0-0.5s0.6-0.6,0.8-0.9s0.6-0.7,0.8-1.1c2.8-4.3,2.7-9.7,0.8-14.3c-0.2-0.5-0.5-1-0.7-1.5
		c0-0.1-0.1-0.2-0.1-0.1c0-0.2,0.4-0.6,0.5-0.7c2-2.5,4.1-4.9,6.2-7.4c1.2-1.4,1.9-3.6,0.7-5.2c-1.5-2-4.5-1.6-6.5-1
		c-6.1,1.8-11.5,5.4-15.5,10.5l-1.6,1.9c-1.2,1.5,2-0.7,3.2-1.2c0.4-0.2,0.2,0-0.1,0c-1,0.1-2.1,0.2-3.2,0.2
		c-8,0.4-16.1,0.4-24.1,0.5h-4.5c-0.8,0.1-1.6,0.1-2.3,0c-0.6-0.2-1.3-1.2-1.9-1.7c-0.9-0.8-2-1.3-3.1-1.7c-2.2-0.5-4.7,0.6-6.6,1.7
		c-0.4,0.2-0.7,0.4-1,0.7l4.5-1.8c-1.9-0.6-3.9,0-5.6,0.8c-2.3,0.9-5.3,2.7-4.4,5.8c0.6,2.1,2.9,3.4,4.7,4.3c0.7,0.4,1.5,0.7,2.3,1
		c0.8,0.3,1,1.2,1.4,1.9c5.5,8.9,15.2,15.2,24.5,19.6c0.5,0.2,0.9,0.4,1.3,0.6c0.3,0.2,0.2,0.3,0.3,0.7l1,6
		C319.8,366,324.5,364.8,324.4,364z"></path><path class="st1" d="M313.8,339.9c0,0-9.7-5.6-13.7-10.9"></path><path class="st2" d="M315.5,338.4c-1.8-1-3.5-2.2-5.3-3.4c-1.5-1.1-3-2.2-4.4-3.4c-0.2-0.1-0.2-0.2-0.1,0l-0.3-0.2l-0.6-0.5
		c-0.3-0.3-0.6-0.6-0.9-0.9c-0.7-0.7-1.3-1.3-1.8-2.1c-1.4-1.8-5.9,0.3-4.3,2.4c2.5,3,5.4,5.6,8.6,7.7c1.8,1.2,3.5,2.4,5.4,3.5
		c1.1,0.6,2.5,0.4,3.5-0.5C316.2,340.3,316.6,339,315.5,338.4z"></path><path class="st1" d="M292.1,326.2c0,0-2.3,2.3,1.9,10"></path><path class="st2" d="M289.8,325.4c-0.4,0.4-0.6,0.9-0.7,1.5c-0.2,1.6,0,3.1,0.5,4.6c0.5,1.5,1.1,3,1.9,4.4c0.5,0.9,1.9,1.3,2.8,1.4
		c0.3,0,2.4,0.2,2-0.7c-1.2-2-2-4.3-2.4-6.6v-0.3c0,0.2,0,0,0-0.1s0-0.3,0-0.5c0-0.3,0-0.6,0.1-0.8c0.1-0.3,0.2-0.7,0.3-1
		c0.1-0.1,0.2-0.5,0-0.1c0,0,0-0.1,0.1-0.1c0.6-0.7-0.9-1.4-1.4-1.6c-0.6-0.2-1.2-0.4-1.9-0.4C290.7,325.1,290.1,325.1,289.8,325.4
		L289.8,325.4z"></path><path class="st1" d="M317.1,334.2c0,0-14-3.5-16.1-4.7"></path><path class="st2" d="M318.5,332.8c-4.4-1.1-8.8-2.2-13.2-3.6l-0.5-0.1c0.4,0.1,0.1,0-0.1,0l-0.8-0.3c-0.4-0.1-0.7-0.3-1.1-0.5
		c-1-0.6-2.6-0.1-3.4,0.5s-1.3,1.5-0.3,2.1c0.8,0.4,1.7,0.8,2.6,1c1.4,0.5,2.7,0.9,4.1,1.3c2.7,0.8,5.4,1.5,8.1,2.1
		c0.6,0.1,1.2,0.3,1.8,0.5c1.2,0.2,2.5-0.2,3.4-1C319.8,333.9,319.5,333,318.5,332.8L318.5,332.8z"></path><path class="st2" d="M322.2,340.9c-0.1,0-0.8,0.2-0.4,0.1l0.6-0.1l0.4-0.1c0.4-0.1-0.3,0.1-0.4,0.1c0.1,0,0.2,0,0.3,0
		c0.4,0,0.8-0.1,1.2-0.1s-0.7,0-0.3,0h0.4c0.2,0,0.5,0,0.7,0s0.6,0,0.1,0s0,0,0.1,0c0.3,0,0.5,0.1,0.8,0.1c0.1,0,0.5,0.1,0.1,0
		s0.1,0,0.2,0.1c0.2,0.1,0.5,0.2,0.7,0.2s0.4,0.2,0.1,0l0.3,0.2c0.3,0.1,0.5,0.3,0.7,0.4l0.4,0.3l0.1,0.1c-0.2-0.1,0,0,0.1,0.1
		c0.2,0.2,0.4,0.4,0.6,0.7c0.5,0.6,0.9,1.2,1.2,1.9c0.1,0.3,0.9,0.5,1.2,0.6c0.6,0.1,1.3,0.1,1.9-0.1c0.7-0.2,2-0.6,1.6-1.5
		c-2.3-5.3-8.7-6-13.7-5.1c-0.6,0.1-1.2,0.2-1.7,0.4c-0.7,0.2-1.6,1-0.8,1.6S321.2,341.1,322.2,340.9L322.2,340.9z"></path><circle class="st0" cx="423.1" cy="279.6" r="17.1"></circle><path class="st0" d="M403.8,279.2c0.1,8.2,5.2,15.5,12.8,18.5c7.5,2.9,16,0.8,21.3-5.3c5.2-6.3,5.9-15.3,1.7-22.3
		c-4.2-6.9-12.4-11-20.4-9.5C410.3,262.4,403.9,270.1,403.8,279.2c0,2.5,4.4,4,4.4,0.9c0.1-6.3,4.1-12,10-14.2
		c7.4-3,15.7,0.6,18.7,8c1.7,4.3,1.3,9.1-1.2,13c-3.3,5.5-9.6,8.4-15.9,7.3c-6.8-1.3-11.7-7.2-11.6-14.1
		C408.2,277.5,403.8,276.1,403.8,279.2z"></path><path class="st0" d="M427.8,267.1c1.6-5,3.3-10.3,2.5-15.6c-0.6-4.4-2.6-8.7-6.5-11.1c-1.1-0.7-2.5-0.7-3.5,0
		c-0.8,0.5-0.9,1.6-0.4,2.4c0.1,0.1,0.2,0.3,0.4,0.4c7.9,4.9,4.9,15.8,2.7,22.9C422.2,268.7,427.1,269.5,427.8,267.1L427.8,267.1z"></path><path class="st1" d="M426.6,274.1l-0.2,0.1l-1.8,0.8c-1.7,0.6-1,0.1-0.3,0.5c0.3,0.2,0.6,0.4,0.9,0.7c0.5,0.8,0.8,1.6,0.8,2.5
		c0.2,1.7,0.3,3.5-0.8,4.9c-0.2,0.3-0.4,0.5-0.7,0.7c-0.1,0.1-0.2,0.2-0.3,0.2c-0.1,0.1-0.1,0.2,0,0l-0.1,0.1
		c0.2-0.1,0.4-0.2,0.6-0.3c0.4-0.2,0.9-0.4,1.3-0.5c-0.3,0.1-0.1,0,0,0h-0.3c-0.3,0-0.6,0-1,0c-1.5-0.2-2.8-1.1-3.6-2.3
		c-0.9-1.4-1.3-3.1-0.9-4.8c0-0.1-0.9,0.1-0.8,0c-0.6,0.1-1.1,0.3-1.7,0.6c-0.5,0.2-1.1,0.5-1.6,0.8c-0.2,0.1-0.5,0.3-0.6,0.5
		c-0.4,1.8,0,3.7,1.2,5.1c1.2,1.5,3,2.2,4.9,2c1.7-0.2,3.3-0.8,4.8-1.5c1.1-0.5,2.1-1.1,3-2c1.5-1.7,1.5-3.8,1.1-5.9
		c-0.1-1.2-0.7-2.2-1.7-2.9c-0.5-0.2-1-0.3-1.6-0.2c-1.5,0.3-2.9,0.8-4.2,1.6c0,0-0.6,0.4-0.6,0.5s0.8,0,0.8,0
		C424.5,275.1,425.6,274.7,426.6,274.1L426.6,274.1z"></path><path class="st2" d="M426.1,413.8c1,0,2.4-0.7,2.2-1.9s-1.7-1.9-2.8-1.9s-2.4,0.7-2.2,1.9S425,413.8,426.1,413.8z"></path><path class="st1" d="M403.2,405.3c0,0,4.9,14.1,25.5,4.5c0,0,5.6-5.9,6.5-17.3c0,0-24.6-12.7-41.8-10.6s-24.6,9.3-22.7,12
		s20.2-2.3,20.2-2.3s-4.6,6.1-2.4,11.9s6.6,5,6.6,5s7.9,9.5,11.7,3.5c0,0,10.9,4.7,21.8-1.3"></path><path class="st2" d="M401.1,404c1.5,4.3,5.9,7.7,9.9,9.4c3.8,1.5,8.1,1.7,12,0.6c1.3-0.3,2.6-0.7,3.9-1.2c1.3-0.3,2.6-0.9,3.7-1.6
		c0.6-0.5,1-1.2,1.4-1.8c3-4.7,4.7-10.1,5.1-15.7c0.1-0.8-2.2-2.2-2.8-2.5c-4.4-2.2-8.9-4.2-13.6-5.8c-8.3-3-17.3-5.6-26.2-5.4
		c-5.1,0.2-10.1,1.1-14.9,2.8c-3.3,1-6.4,2.7-9.1,4.9c-1.1,1-2.8,2.7-2.3,4.4s2.5,2.9,3.9,3.5c1.1,0.4,2.2,0.6,3.3,0.5
		c3.6-0.1,7.2-0.7,10.7-1.5c2.1-0.5,4.2-1,6.4-1.5l-3.9-3c-2.8,3.8-4,9-1.9,13.3c1.4,2.7,3.7,4.8,6.5,6c1.1,0.5,2.2,0.7,3.4,0.6
		l-3.5-2.2c1.8,2.2,4,4.1,6.4,5.6c2.8,1.8,6.7,3.5,9,0.1l-0.8-0.1c7.3,2.9,15.6,2.5,22.6-1.2c0.4-0.2-1.5-1.8-1.7-2
		c-0.5-0.4-1.7-1.4-2.4-1c-4.5,2.4-9.6,3.4-14.7,2.9c-1.6-0.2-3.1-0.5-4.7-0.9c-0.6-0.1-1.1-0.3-1.6-0.5c-0.1,0-0.7-0.3-0.8-0.1
		c-0.6,1.1-1.7,1.8-3,1.9c-0.5,0-0.9-0.1-1.4-0.2c-0.2-0.1-0.4-0.1-0.6-0.2c0.1,0.1-0.6-0.4-0.2-0.1c-0.1-0.1-0.8-0.6-0.4-0.3
		l-0.7-0.6c-0.1-0.1-0.2-0.2,0,0l-0.3-0.3l-0.5-0.5c-0.1-0.1-0.5-0.5-0.2-0.2l-0.4-0.4c-0.1-0.1-0.2-0.2-0.3-0.3
		c-0.6-0.7-2.4-2.5-3.5-2.2c-0.6,0-1.2,0-1.8-0.1c-0.2,0-0.2-0.2-0.1,0c0.1,0.1,0.3,0.2,0.5,0.4c0.4,0.2,0.1,0.1,0-0.1
		s-0.3-0.4-0.4-0.6c-0.7-1.1-1.1-2.4-1.3-3.7c-0.3-3.5,0.8-6.9,2.9-9.6c0.5-0.7-3.1-3.2-3.9-3c-4.4,1.2-9,2.2-13.5,2.8
		c-1.3,0.2-2.7,0.3-4,0.3c-0.4,0-0.9-0.1-1.3-0.1c-0.1,0-0.4,0,0,0h-0.1c-0.9-0.4-0.2,0.2,2.2,1.7c0.2,0.2,0.1,0.3,0.1,0.1
		c0-0.6,0.1-1.2,0.4-1.8c0.5-0.9,1.2-1.6,2-2.3c2.6-2.1,5.5-3.7,8.7-4.6c4.5-1.6,9.2-2.5,13.9-2.8c8.2-0.4,16.6,1.8,24.3,4.5
		c3.5,1.2,6.9,2.6,10.3,4.1l1.8,0.8l0.8,0.4l0.2,0.1c0.4,0.2-0.4-0.2,0,0l1.1,0.5l-2.8-2.5c-0.4,4.8-1.8,9.4-4.2,13.6
		c-0.6,1-1.2,2-2,2.9c-0.9,1.1-2.5,1.4-3.8,1.9c-3.9,1.4-8.3,2.4-12.4,1.6c-0.6-0.1-1.3-0.3-1.9-0.5c-0.1,0-0.9-0.4-0.6-0.2
		l-0.3-0.2c-0.6-0.3,0.1,0-0.3-0.1c-0.1-0.1-0.4-0.3,0.1,0.1l-0.4-0.3c0.6,0.5-0.1-0.1-0.2-0.2c0.5,0.4-0.1-0.1-0.2-0.2l0.1,0.1
		l-0.4-0.4c-0.2-0.3-0.5-0.6-0.6-0.9c-0.2-0.3-0.4-0.7-0.6-1l-0.2-0.4c-0.1-0.3,0.1,0.2,0-0.1c0-0.1-0.1-0.2-0.1-0.2
		c-0.5-0.9-1.3-1.7-2.2-2.1C402.8,404.3,400.9,403.4,401.1,404L401.1,404z"></path><path class="st2" d="M397.2,393.9c-3.2,2.2-5.3,5.7-5.7,9.6c-0.1,1.9,0.3,3.7,1,5.4c0.6,1,1.7,1.4,2.8,1c0.7-0.2,2.5-1,2.1-2.1
		c-0.4-0.9-0.7-1.8-0.9-2.8c-0.2-0.7-0.2-1.5-0.1-2.3c0.1-0.8,0.3-1.5,0.5-2.2c-0.1,0.4,0.1-0.2,0.1-0.2s0.1-0.3,0.2-0.5
		c0.1-0.3,0.3-0.6,0.5-0.9c0.2-0.3,0.3-0.5,0.5-0.8c0.3-0.5-0.2,0.2,0-0.1s0.2-0.2,0.2-0.3c0.3-0.4,0.6-0.8,1-1.1l0.4-0.4l0.2-0.2
		c0.2-0.2-0.5,0.4-0.2,0.2l0.3-0.2c0.8-0.5,1.3-1.6,0.4-2.3C399.5,393.1,398.1,393.2,397.2,393.9L397.2,393.9z"></path><polygon class="st0" points="291.1,422 255.4,342.4 365.4,339.8 390.9,422.2 	"></polygon><path class="st0" d="M293.5,421.4l-3.6-7.9l-8.5-19l-10.3-23l-8.9-19.9l-2.9-6.6c-0.4-1.1-0.9-2.1-1.4-3.1c0,0,0-0.1-0.1-0.1
		l-2,2.7l10.9-0.3l26.3-0.6l31.8-0.8l27.5-0.6l9.1-0.2c1.4,0,2.9,0,4.3-0.1h0.2l-2.6-1.5l2.5,8.2l6.1,19.7l7.4,23.8l6.4,20.7
		l2.1,6.8c0.3,1.1,0.6,2.2,1,3.2c0,0,0,0.1,0,0.1l2-2.7h-9.9h-23.8L328,420l-24.8,0c-4,0-8.1-0.2-12.1,0h-0.2
		c-1.1-0.1-2.1,0.8-2.2,2c0,0.1,0,0.1,0,0.2c0.3,1.2,1.5,2.1,2.8,2h9.9h23.9l28.8,0.1h24.8c4,0,8.1,0.2,12.1,0h0.2
		c1.1,0.1,2.1-0.8,2.1-1.9c0-0.3,0-0.6-0.1-0.8l-2.5-8.2l-6.1-19.7l-7.3-23.7l-6.4-20.7l-2.1-6.8c-0.3-1-0.6-2.2-1-3.2
		c0,0,0-0.1,0-0.1c-0.5-1-1.5-1.5-2.6-1.5l-10.9,0.2l-26.3,0.6l-31.8,0.8l-27.5,0.6c-4.5,0.1-8.9,0.1-13.4,0.3h-0.2
		c-1.1-0.1-2.1,0.8-2.1,1.9c0,0.3,0,0.6,0.1,0.8l3.5,7.9l8.5,19l10.3,23l8.9,19.9c1.4,3.2,2.8,6.5,4.3,9.6l0.1,0.1
		C289.9,425,294.7,424.2,293.5,421.4z"></path><path class="st1" d="M321.8,371.8c-2.5-0.3-5.3-0.4-7.5,1.1s-2.7,3.9-2.8,6.3c-0.2,2.3,0.3,4.7,1.4,6.7c1.6,2.7,4.6,3.7,7.6,3.7
		c2.6,0,5.6-0.5,6.9-3.1c0.5-1-0.7-2.2-1.6-2.5s-2.4-0.6-3,0.4c-0.1,0.3-0.3,0.5-0.5,0.6l-0.2,0.2c0,0-0.3,0.2-0.2,0.1
		s-0.1,0.1-0.1,0.1s-0.2,0.1-0.3,0.1l-0.5,0.2c0.3-0.1-0.2,0-0.2,0c-0.4,0.1-0.8,0.1-1.3,0.1c-0.2,0,0,0,0.1,0h-0.4h-0.7
		c-0.2,0-0.5,0-0.7-0.1c0.4,0.1-0.5-0.2-0.2-0.1s-0.1,0-0.1-0.1s0.4,0.3,0.1,0.1l-0.2-0.2c0,0,0.2,0.3,0.1,0.1s-0.4-0.5-0.2-0.2
		l-0.3-0.6c-0.1-0.2,0,0,0,0s-0.1-0.2-0.1-0.3s-0.1-0.4-0.2-0.5c-0.1-0.4-0.2-0.8-0.3-1.3c0,0.2,0-0.4,0-0.4s0-0.4,0-0.6
		c0-0.5,0-0.9,0-1.3c0-1.6,0.3-3.4,1.5-4.5c0.6-0.5,1.4-0.9,2.3-0.9h0.3c0.4,0-0.3,0,0.1,0h0.9c0.5,0,1.1,0.1,1.6,0.1
		c1,0.1,2.1-0.5,1.8-1.7C324.2,372.6,323.1,371.9,321.8,371.8L321.8,371.8z"></path></g><g id="character-3"><path class="st1" d="M53.7,420.5c-19.2-0.3-43.8-1.3-36.2-26.9c15.1-51.4,57.4-99.3,88.1-101.4c43.1-3,44,114.5,44,114.5
		S92.2,421,53.7,420.5z"></path><path class="st2" d="M52.5,418.4c-6.1,0-12.1-0.3-18.1-1.2c-4.9-0.8-10.5-2.2-14-5.6c0.3,0.3-0.2-0.2-0.3-0.4s-0.6-0.8-0.3-0.3
		l-0.5-0.7c-0.1-0.1-0.2-0.4,0,0l-0.3-0.5c-0.1-0.1-0.1-0.3-0.2-0.4c-0.2-0.3,0.1,0.3,0-0.1s-0.2-0.6-0.3-0.8
		c-0.2-0.5-0.3-1.1-0.4-1.6c-0.5-3-0.3-6.2,0.5-9.1c1.1-4.2,2.4-8.4,4-12.5c1.5-4.1,3.2-8.2,5-12.2c7.1-15.9,16.4-30.7,27.5-44.1
		c9.4-11.1,20.3-21.6,33.2-28.6c8-4.3,18.2-8.1,27.1-4.8c1.6,0.6,3,1.3,4.4,2.3c0.4,0.2,0.7,0.5,1.1,0.8c-0.3-0.2,0,0,0.2,0.1
		l0.6,0.5c0.3,0.3,0.7,0.6,1,0.9l0.5,0.5l0.2,0.2c0.3,0.3-0.2-0.2,0,0c0.7,0.7,1.3,1.4,1.9,2.1c0.2,0.2,0.3,0.4,0.5,0.5l0.2,0.3
		c-0.1,0-0.4-0.5-0.1-0.1s0.6,0.8,0.9,1.2c0.6,0.8,1.2,1.7,1.7,2.5c-0.3-0.4,0,0,0.1,0.2s0.3,0.4,0.4,0.7c0.3,0.5,0.6,1,0.8,1.4
		c0.5,1,1,1.9,1.6,2.9l0.4,0.7l0.2,0.4c0.2,0.3-0.1-0.3,0,0c0.2,0.5,0.5,1.1,0.7,1.6c1,2.1,1.8,4.3,2.6,6.5c1.7,4.6,3.1,9.3,4.2,14
		c2.4,9.8,4.2,19.8,5.4,29.8c1.1,8.5,1.8,17,2.3,25.6c0.3,4.5,0.5,9,0.5,13.5v0.6l0.5-0.7c-7.2,1.8-14.4,3.4-21.6,4.8
		c-15.5,3.2-31.1,5.8-46.9,7.5C70.7,417.9,61.6,418.4,52.5,418.4c-1,0-0.2,1.8,0,2.2c0.4,0.8,1.3,2.1,2.4,2.1
		c16.5,0.2,32.9-1.9,49.2-4.4c13.1-2.1,26.2-4.7,39.2-7.6c2.5-0.6,5-1.1,7.5-1.8c0.3,0,0.6-0.3,0.5-0.7c0-3.3-0.2-6.7-0.3-10
		c-0.4-8.2-1-16.4-1.9-24.6c-1.1-10.4-2.8-20.7-5-30.9c-2.3-10-5.2-20-9.7-29.3c-3.7-7.7-8.9-15.5-16.4-20c-3.2-2-6.9-3.1-10.6-3.3
		c-5.2-0.3-10.4,1.1-15.2,3c-13.3,5.2-24.7,15.1-34.3,25.4c-11.9,12.9-22,27.5-29.9,43.2c-4.1,8.2-7.7,16.6-10.6,25.3
		c-2.2,6.7-4.4,13.9-1.7,20.8c4.7,11.9,18.8,14,30,14.6c3.1,0.2,6.1,0.2,9.2,0.3c1,0,0.2-1.8,0-2.2
		C54.4,419.7,53.5,418.4,52.5,418.4z"></path><path class="st1" d="M133,303.8c-16,1.8-14.2-6.7-18.4,3.2c0,0-4.7,9.7-21.3-4.1c-2.3-1.9,3-37,29.3-46.9c0,0,14.1-0.6,16.6-12.7
		c0,0,4.4,12.6,13.3,15.9s27.2,7,25.6,16.5s-14.6,7.9-21.6,3.5l-6.4,12.4c-9.1-1.4-8.8-11.6-8.8-11.6s-8.8,5.8-8.6,10
		s8.1,8.9,8.1,8.9C139.1,301.6,136.2,303.5,133,303.8z"></path><path class="st2" d="M133.2,301.7c-3,0.4-6,0.3-9-0.2c-0.5-0.1-0.9-0.2-1.4-0.3s-0.1,0,0,0l-0.3-0.1l-0.6-0.2
		c-0.7-0.2-1.4-0.5-2.2-0.7c-1.6-0.4-3.3,0.1-4.4,1.2c-0.7,0.7-1.2,1.5-1.7,2.5c-0.6,0.9-1,1.9-1.3,2.9c0-0.1,0.4-0.6,0-0.1
		c-0.1,0.1-0.2,0.2-0.3,0.4c-0.3,0.5,0.5-0.4,0,0l-0.6,0.5c-0.3,0.3,0.2-0.1,0.2-0.1c-0.1,0.1-0.3,0.2-0.4,0.2l-0.4,0.2
		c-0.5,0.3,0.3-0.1,0,0s-0.7,0.2-1,0.3s0.5-0.1,0.2,0h-0.2l-0.6,0c-0.2,0-0.4,0-0.6,0c-0.4,0-0.1,0,0,0h-0.5
		c-1.1-0.1-2.1-0.4-3.1-0.7c-3.4-1.4-6.6-3.3-9.3-5.7c-0.2-0.1-0.4-0.5-0.6-0.5c0,0,0.4,0.5,0.2,0.3s0.1,0.5,0,0.1s-0.1-0.8-0.2-1.2
		s0,0.5,0,0c0-0.1,0-0.3,0-0.4c0-0.3,0-0.6,0-1c0-0.7,0.1-1.5,0.2-2.2c0.6-4,1.6-8,3.1-11.7c3.8-10.1,10.3-19.5,19.7-24.9
		c1.3-0.7,2.7-1.3,3.9-1.9c0.1-0.1,0.8-0.3,0.1-0.2h0.1c0.2,0,0.3,0,0.5,0c1.6-0.2,3.2-0.5,4.7-0.9c5.2-1.5,9.8-4.6,12.3-9.5
		c0.7-1.4,1.3-3,1.6-4.5l-4.7,0.9c1.3,3.6,3.1,7,5.4,10c1.9,2.5,4.2,4.6,6.9,6.2c2.5,1.2,5.1,2.1,7.8,2.8c5.3,1.7,11.2,3.3,15.6,6.6
		c1.8,1.3,3,2.7,3.3,4.7c0.1,1-0.1,2.1-0.5,3c-0.2,0.4-0.4,0.8-0.7,1.2c-0.3,0.4-0.1,0.1-0.1,0.1L174,279c-0.1,0.1-0.2,0.2-0.3,0.2
		c-0.2,0.2,0.3-0.1-0.1,0.1c-0.9,0.6-2,1-3.1,1.1c-1.4,0.2-2.8,0.1-4.2-0.1c-3-0.4-5.9-1.5-8.5-3.1c-1.3-0.8-3,0.5-3.6,1.6
		l-6.4,12.4l3.1-1.7c-3-0.5-5.6-2.6-6.5-5.5c0,0-0.1-0.3-0.2-0.6s-0.2-0.6-0.2-0.9c-0.1-0.5-0.2-1-0.3-1.5s0-0.8-0.1-1.1
		c0-0.1,0,0.5,0,0c0-1.8-2-2.5-3.4-1.5c-1.7,1.1-3.3,2.3-4.8,3.7c-2.1,1.9-4.6,4.4-5.1,7.4s1.8,5.7,3.8,7.6c1.6,1.4,3.3,2.7,5.2,3.8
		l-0.8-2.3c-0.1,0.2-0.2,0.1,0.2-0.3c-0.1,0.1-0.2,0.3-0.3,0.4c-0.1,0.2-0.3,0.4-0.4,0.6s-0.4,0.5-0.2,0.2s-0.2,0.2-0.2,0.2
		c-0.5,0.5-1,0.9-1.6,1.2C135.1,301.3,134.2,301.6,133.2,301.7c-1.2,0.1-2.3,1-2.6,2.3c-0.1,1,0.7,1.9,1.7,1.9c0.1,0,0.3,0,0.4,0
		c4.2-0.5,8.3-2.9,10.2-6.8c0.4-0.9,0-1.9-0.9-2.3l-0.4-0.2l-0.2-0.1l-0.5-0.3c-1-0.7-1.9-1.4-2.9-2.2c-0.9-0.7-1.7-1.6-2.4-2.5
		c-0.6-0.7-0.9-1.6-0.8-2.6c0.3-0.8,0.8-1.6,1.4-2.3c0.7-0.9,1.6-1.7,2.4-2.4c0.8-0.7,1.7-1.4,2.6-2.1c0.1-0.1,0.6-0.5,0,0
		c0.1-0.1,0.4-0.2,0.4-0.3s0.2-0.2,0.3-0.2l-3.4-1.5c0,2.2,0.4,4.4,1.2,6.4c1.6,3.8,5,6.5,9.1,7.1c1.3,0.2,2.5-0.6,3.1-1.7l6.4-12.4
		L155,281c5,3.1,11.8,4.7,17.5,3.1s9.9-8,7.1-13.7c-1.2-2.4-3.5-4.1-5.7-5.5c-2.7-1.5-5.5-2.8-8.4-3.8c-2.9-1-5.9-1.9-8.8-2.9
		c-2.8-0.7-5.4-2.1-7.6-3.9c-2.3-2.2-4.3-4.8-5.7-7.6c-0.6-1-1.1-2.1-1.5-3.2c-0.1-0.3-0.3-0.7-0.4-1c-0.2-0.5,0-0.1,0,0.1
		c-0.9-2.5-4.3-1.2-4.7,0.9c-0.5,2.5-1.8,4.8-3.8,6.5l-0.7,0.6c-0.4,0.3-0.1,0.1-0.1,0.1l-0.4,0.3c-0.5,0.4-1.1,0.7-1.6,1
		c-0.2,0.1-0.5,0.2-0.7,0.4c-0.6,0.3,0.1,0-0.3,0.1s-1.1,0.4-1.6,0.6s-0.9,0.3-1.4,0.4l-0.6,0.1l-0.5,0.1l-0.7,0.1l-0.8,0.1
		c-2.1,0.4-4.1,1.1-5.9,2.2c-10.6,5.5-18.2,15.5-22.7,26.4c-1.8,4.2-3.1,8.7-3.9,13.2c-0.3,1.5-0.5,3-0.5,4.6
		c-0.1,1.2,0,2.4,0.4,3.5c0.4,0.7,1,1.3,1.7,1.7c1.7,1.4,3.5,2.6,5.4,3.8c2.5,1.6,5.3,2.6,8.2,3.1c3.6,0.6,7.3-0.7,9.8-3.5
		c0.5-0.6,0.9-1.3,1.2-2.1c0.2-0.5,0.5-1.1,0.7-1.6c0.1-0.2,0.2-0.4,0.3-0.6c0.2-0.5-0.2,0.2,0.1-0.2l0.3-0.5
		c0.2-0.3,0.2-0.2-0.1,0.1c0.6-0.5-0.2,0.1-0.4,0.1c0.4-0.1-0.4,0.1-0.3,0c0.4,0-0.1,0-0.2,0c0.2,0.1,0.5,0.1,0.8,0.1
		c-0.8-0.1,0.2,0.1,0.4,0.1l1.1,0.4c2.5,0.8,5,1.2,7.6,1.3c1.8,0,3.6,0,5.5-0.2c1.3-0.1,2.4-1,2.6-2.3c0.1-1-0.7-1.9-1.7-1.9
		C133.5,301.7,133.4,301.7,133.2,301.7z"></path><path class="st2" d="M88.7,276.6c0,0-13.4,1.3-14.3-6s7-4.3,7-4.3s-7.2-15.8,6.3-16.2c0,0-9.1-12.5,1.1-21.2s26.2,0.6,26.2,0.6
		s2.1-15.5,15.1-11.4s8.2,12.9,8.2,12.9s8.4,2.5,7.7,7.9s-7.4,6.4-7.4,6.4s-4.9,14.8-16.2,10.7l-14.3,17.3c0,0,2.8,7.6-2.7,14.1
		S86.5,286.4,88.7,276.6z"></path><path class="st2" d="M88.7,274.7c-0.3,0-0.2,0.2,0.3,0c-0.2,0-0.4,0-0.7,0c-0.7,0-1.5,0-2.2,0c-1.9,0-3.8-0.3-5.6-0.9
		c-1.7-0.4-3.1-1.7-3.7-3.4c-0.1-0.5-0.2-1-0.1-1.5c0-0.2,0-0.4,0-0.6l0.1-0.3c0.2-0.6,0,0.2,0-0.2c0-0.1,0.1-0.2,0.1-0.2
		c-0.1,0.1-0.2,0.4,0,0s-0.2,0.3,0,0c0,0.1-0.6,0.2-0.1,0.1c0.1,0,0.3-0.1,0,0s0.3,0,0.4-0.1c0.3,0-0.2,0-0.2,0h0.3h0.7h0.3
		c-0.2,0-0.4-0.1-0.1,0l0.6,0.1c0.4,0.1,0.8,0.2,1.2,0.3c1.4,0.5,4.3-1,3.5-2.7c-1-2.2-1.6-4.5-1.8-6.9c0-0.5,0-1,0-1.4
		c0-0.2,0-0.4,0-0.6c0-0.1,0.1-0.8,0-0.5c0.1-0.8,0.4-1.5,0.8-2.2c0.1-0.1,0.5-0.6,0.1-0.2c0.2-0.2,0.3-0.4,0.5-0.6
		c0.4-0.4-0.3,0.2,0.1-0.1c0.1-0.1,0.9-0.5,0.3-0.2c0.3-0.1,0.6-0.3,0.9-0.4c0.5-0.2-0.3,0,0.3-0.1c0.7-0.2,1.3-0.2,2-0.3
		c1.5-0.1,3.9-1.5,2.7-3.2l-0.2-0.3v-0.1c-0.1-0.2-0.3-0.4-0.4-0.7c-0.7-1.1-1.2-2.3-1.7-3.6c-1.2-3.3-1.6-7,0-10.3
		c3.7-7.8,13.1-7.5,20.1-5.2c2,0.6,4,1.5,5.8,2.5c1.5,0.7,3.2,0.1,3.9-1.4c0.1-0.2,0.2-0.4,0.2-0.7c0-0.3-0.1,0.6,0,0.1
		c0.1-0.3,0.1-0.6,0.2-0.9c0.2-0.9,0.5-1.8,0.8-2.7c0.3-1,0.8-2,1.4-2.9c0.2-0.2,0.3-0.5,0.5-0.7c0,0,0.4-0.6,0.1-0.2
		c0.1-0.1,0.2-0.2,0.3-0.3c0.2-0.2,0.5-0.5,0.7-0.7c0.1-0.1,0.2-0.2,0.3-0.3c-0.4,0.3,0.1-0.1,0.2-0.1c0.9-0.7,1.9-1,3-1.1
		c2,0,4,0.4,5.8,1.2c1.7,0.7,3.3,1.7,4.6,3.1c0.7,0.9,1.2,1.9,1.4,3c0.1,0.6,0.1,1.2,0.1,1.8c0,0.1,0,0.3-0.1,0.4
		c0,0.4,0.1-0.4,0,0.1c0,0.2-0.1,0.4-0.1,0.6c-0.1,0.4-0.2,0.7-0.4,1c-0.2,0.6,0.2-0.4,0-0.1c-0.5,0.7-0.3,1.6,0.3,2.1
		c0.2,0.1,0.4,0.2,0.6,0.3c0.3,0.1,0.7,0.2,1,0.4c-0.5-0.2,0.5,0.2,0.6,0.3c0.4,0.2,0.9,0.4,1.2,0.6c1.5,0.9,3.2,2.1,3.6,3.9
		c0.2,1,0,2-0.6,2.8c-0.4,0.7-1,1.3-1.8,1.6c-0.1,0.1-0.6,0.3-0.2,0.1c-0.2,0.1-0.5,0.2-0.7,0.3c-0.4,0.2-0.8,0.3-1.1,0.4
		c0.8-0.2-0.3,0.1-0.6,0.1c-1,0.2-1.9,0.8-2.3,1.8c-0.2,0.7-0.5,1.4-0.8,2c-0.1,0.3,0.1-0.3-0.1,0.2c-0.1,0.1-0.1,0.3-0.2,0.5
		c-0.2,0.3-0.4,0.7-0.6,1c-0.5,0.8-1,1.6-1.6,2.3c-0.2,0.3-0.5,0.6-0.7,0.8c-0.3,0.4-0.7,0.7-1.1,1s0,0-0.3,0.3
		c-0.2,0.1-0.4,0.3-0.6,0.4l-0.6,0.4c-0.4,0.2,0.2-0.1-0.3,0.2l-0.8,0.3c-0.5,0.2,0.3-0.1-0.3,0.1l-0.7,0.1c-0.2,0-0.3,0-0.5,0.1
		c0.2,0,0.2,0,0,0c-1.2,0-2.4-0.2-3.5-0.6c-1.1-0.2-2.2,0.1-2.9,0.8l-13.1,15.8c-0.6,0.7-1.9,2-1.9,2.9c0.1,0.5,0.2,1.1,0.4,1.6
		c0.2,0.9,0.3,1.8,0.3,2.8c0.1,3.1-0.9,6.1-2.9,8.5c-0.2,0.2-0.4,0.4-0.6,0.6c-0.2,0.2,0,0,0,0l-0.4,0.2c-0.4,0.3,0.2,0-0.2,0.1
		c-0.1,0-0.9,0.3-0.5,0.2c-0.2,0.1-0.4,0.1-0.7,0.1l-0.5,0c0,0,0.3,0,0,0c-0.5,0-0.9,0-1.4-0.1c-5-0.9-9.5-5.9-8.4-11.2
		c0.6-2.8-4.2-2.4-4.7-0.1c-1.4,6.7,3.1,12.6,9.4,14.6c3.1,1,6.4,0.7,9.3-0.9c3.5-2,5.5-6.3,6.1-10.1c0.4-2.6,0.2-5.2-0.6-7.7
		l-0.6,1.9l12.5-15.1l1.8-2.2l-2.9,0.8c5.6,2,11.3,0,15-4.4c2.1-2.4,3.7-5.1,4.7-8.1l-2.3,1.8c4.6-0.8,10-4.3,9.8-9.5
		c-0.2-4.5-5.1-7.3-9-8.5l0.9,2.4c0.8-1.6,1.2-3.3,1.1-5.1c-0.2-3.9-2.9-6.8-6.3-8.5c-4.2-2.2-9.3-3.4-13.8-1.4
		c-3.2,1.5-5.8,4.2-7.2,7.5c-0.9,1.9-1.4,3.9-1.7,5.9l4.1-2.1c-5.8-3.4-12.5-5-19.3-4.4c-5.3,0.6-10.2,3.4-13.3,7.7
		c-2.5,3.8-3.2,8.5-1.9,12.9c0.7,2.6,1.9,5.1,3.4,7.4l2.7-3.2c-4.7,0.2-9.5,2.1-10.8,7c-0.9,3.2-0.2,6.7,0.8,9.8
		c0.2,0.8,0.5,1.5,0.8,2.2l3.5-2.7c-4.2-1.6-10.2-0.5-10.7,4.8c-0.6,6.6,6.1,8.8,11.4,9.2c1.8,0.2,3.6,0.2,5.4,0
		c1.1-0.1,2.4-1.1,2.4-2.3S89.7,274.6,88.7,274.7z"></path><path class="st1" d="M124,259.3c0,0-0.1-10.7-7.9-9.8s-14.4,23.9-1,25.3"></path><path class="st2" d="M126.4,259c0-2.5-0.7-5-2-7.2c-2.4-3.8-8-4.3-11.8-2.3c-3,1.5-5,4.7-6.2,7.8c-1.5,3.5-1.9,7.3-1.2,11
		c1,4.4,4.3,6.9,8.7,7.4c1,0.1,2.6,0,3.4-0.7s-0.4-1.1-1-1.2c-6.8-0.8-7.1-9.5-5.6-14.8c0.7-2.9,2.2-5.6,4.4-7.8
		c0.4-0.4,0.8-0.7,1.3-0.9c0.1-0.1,0.3-0.2,0,0c0.2-0.1,0.6-0.1,0,0c0.4,0-0.2,0-0.2,0s0.4,0,0.3,0c1.4,0.2,2.6,1.1,3.4,2.3
		c1.2,2.1,1.9,4.5,1.9,6.9c0,1.2,5,0.9,5-0.6L126.4,259z"></path><path class="st2" d="M140.8,260.1c0.9,0.4,1.2,1.4,0.8,2.3c0,0.1-0.1,0.2-0.1,0.2c-1.1,1.6-3,0.3-2.6-1.4c0.1-0.8,0.9-1.4,1.7-1.2
		C140.6,260.1,140.7,260.1,140.8,260.1z"></path><circle class="st0" cx="111" cy="265.5" r="17.1"></circle><path class="st0" d="M125.8,264.5c0,6.6-4,12.5-10,15.1c-5.5,2.3-12.3,1.3-16.2-3.4c-4.1-5.1-4.6-12.1-1.4-17.8
		c3.2-5.7,9.6-8.9,16.1-8.1C121.3,251.4,125.8,257.7,125.8,264.5c0,1.1,1.1,2,2.1,2.5c0.5,0.2,2.4,0.8,2.4-0.4
		c-0.2-8.1-5.2-15.3-12.8-18.3c-7.4-3-15.9-1.5-21.3,4.5c-5.2,6-5.9,14.6-1.8,21.4c4.2,6.9,12.5,11.2,20.6,10
		c8.7-1.4,15.1-8.8,15.2-17.6c0-1.1-1.1-2-2.1-2.5C127.6,263.9,125.8,263.4,125.8,264.5z"></path><path class="st0" d="M110.2,254c-1.5-4.6-3-9.5-2.5-14.4c0.3-4,2.4-7.7,5.8-9.9c0.7-0.4-2.2-4.5-3.1-3.9c-3.5,2.2-5.4,6.2-5.9,10.3
		c-0.6,5.1,1,10.2,2.5,15c0.4,1.1,1.1,2.1,1.9,2.8C109.2,254.1,110.6,255,110.2,254L110.2,254z"></path><path class="st1" d="M111.6,260c-0.6-0.3-1.4-0.5-2.1-0.4c-1.2,0-2.5,0.2-3.7,0.6c-1.1,0.3-2,1.2-2.3,2.3c-0.4,1.2-0.5,2.4-0.5,3.6
		c0,1,0.3,2,0.9,2.8c1.2,1.6,3,2.5,4.9,2.6c1.8,0.1,3.7-0.1,5.4-0.7c1-0.3,1.9-0.9,2.7-1.6c1.5-1.5,2.1-3.7,1.6-5.8
		c-0.1-0.2-0.6-0.3-0.8-0.3c-0.6-0.1-1.2,0-1.8,0.1c-0.3,0-2.6,0.3-2.4,0.9c0.5,2.1-0.2,4.3-1.8,5.7c-0.2,0.2-0.5,0.4-0.7,0.5
		c-0.1,0-0.4,0.2-0.2,0.1c-0.1,0-0.2,0.1-0.3,0.1l0.2,0h0.1c0.4-0.1,0.8-0.1,1.3-0.2c-0.4,0,0.1,0,0.1,0c-0.1,0-0.2,0-0.3,0
		c0.3,0-0.1,0-0.2,0s-0.3-0.1-0.4-0.1c-0.7-0.2-1.3-0.6-1.8-1.1c-1.1-1.1-1.7-2.6-1.5-4.1c0-1,0.2-2,0.5-3c0.1-0.5,0.4-0.9,0.7-1.2
		c0.1-0.1,0.2-0.1,0.3-0.2c-1,0.2-2,0.3-3,0.4c-0.1-0.1,0.3,0.1,0.2,0.1c0.4,0.1,0.8,0.2,1.2,0.2c0.6,0,1.3-0.1,1.9-0.2
		c0.5-0.1,1-0.2,1.4-0.4C111.5,260.4,111.8,260.2,111.6,260L111.6,260z"></path><path class="st2" d="M134.4,321.9c-8.2,6.7-17.8,11.6-28.1,14.3c-4.4,1.1-9.3,1.4-12.9-1.7c-1.9-1.6-3.4-3.6-5.3-5.1
		c-2.1-1.6-4.5-2.7-7-3.3c-3.1-0.6-6.2-1-9.3-1.1l-10.2-0.9c-1.1-0.1-2.5,0.5-2.6,1.7s1.3,2,2.3,2.1l9.2,0.8
		c2.7,0.2,5.5,0.3,8.2,0.8c2.4,0.4,4.7,1.4,6.6,3.1c1.9,1.7,3.5,3.7,5.5,5.2c4.5,3.3,10.3,3.5,15.6,2.4c5.4-1.2,10.6-3,15.5-5.4
		c5.7-2.7,11-6,15.9-9.9C140.2,322.9,136.4,320.4,134.4,321.9L134.4,321.9z"></path><path class="st2" d="M133.7,351.2c-5.5,3.7-11.5,6.5-17.8,8.4c-3,0.9-6.2,1.9-9.4,1.8c-1.5,0-2.9-0.4-4.2-1.1c-1.3-0.9-2.4-2-3.7-3
		c-5-3.8-11.5-4.4-17.5-4c-7,0.5-13.8,2.7-20.9,2.7c-6,0-12.6-2.2-15.8-7.6c-1-1.8-5.5,0.5-4.5,2.3c3.1,5.3,9,7.9,14.9,8.6
		c7.3,0.9,14.6-1.2,21.8-2.2c6.1-0.8,13-0.7,18.1,3.3c1.2,1.1,2.5,2.1,3.9,3c1.5,0.8,3.1,1.3,4.8,1.5c3.5,0.3,7-0.6,10.4-1.5
		c8-2.1,15.5-5.5,22.3-10.1c0.7-0.5,1.5-1.7,0.7-2.4S134.5,350.8,133.7,351.2L133.7,351.2z"></path><path class="st2" d="M23.3,408.9c2.1-8.5,6.4-16.2,12.5-22.5c5.9-6.1,13.8-11.3,22.3-12.9c4.4-1,9,0.1,12.6,2.9
		c0.7,0.6,2.2,0.5,3.1,0.5c0.2,0,2.2-0.2,1.8-0.6c-4.1-3.3-9.3-4.3-14.5-4.3c-5.1,0-10.2,1.1-14.9,3.2c-8.8,4-16.2,10.4-21.4,18.5
		c-3,4.6-5.2,9.6-6.5,14.9C18.1,409.1,23,409.9,23.3,408.9L23.3,408.9z"></path><polygon class="st1" points="198.1,422.8 233.9,343 123.8,340.5 98.4,422.9 	"></polygon><path class="st0" d="M199.7,424.6l3.6-7.9l8.5-19l10.3-23l8.9-19.9l2.9-6.5c0.6-1,1-2,1.4-3.1l0.1-0.1c0.4-0.9-2-3.9-2.8-3.9
		l-10.9-0.3l-26.3-0.6l-31.8-0.8l-27.5-0.6l-9.1-0.2c-1.4-0.2-2.9-0.2-4.3-0.1h-0.2c-0.2,0-0.3,0-0.3,0.2l-2.5,8.2l-6.1,19.7
		l-7.3,23.8l-6.3,20.6l-2.1,6.8c-0.4,1-0.7,2.1-1,3.2c0,0,0,0.1,0,0.1c-0.3,0.9,1.9,3.9,2.8,3.9h9.9h23.8l28.8-0.1l24.8,0h8.2
		c1.3,0.1,2.6,0.1,3.9,0h0.2c0.8,0-0.2-1.6-0.4-1.9c-0.4-0.6-1.4-2.2-2.2-2.2H187h-23.9l-28.8,0.1l-24.8,0h-8.2
		c-1.3,0-2.6-0.1-3.9,0h-0.2l2.8,3.9l3.2-10.4l7.4-24l8.2-26.7l5.7-18.6l0.7-2.1c0-0.2,0.4-0.9,0.1-0.6s0.3,0.1,0.5,0.1l1.8,0
		l16.3,0.4l25.8,0.6l28.4,0.7l24,0.6l12.6,0.3h0.6l-2.8-3.9l-3.6,7.9l-8.5,19l-10.3,23l-9,20l-2.9,6.5c-0.6,1-1,2-1.4,3.1
		c0,0.1,0,0.1-0.1,0.1C196.1,421.9,199.4,425.3,199.7,424.6z"></path><path class="st1" d="M111.1,394.5c0,0,20.9-5.6,28.5-5.8s7.1,6.8-2,11.7c0,0,7.7-2.4,5.9,5.1s-13.9,12.9-13.9,12.9s15.8-0.6,14.5,5
		s-85.3,0.8-90.7-2.8s9.1-40.9,12.4-42.2s37.1,11.1,37.1,11.1l5.5-6.4"></path><path class="st2" d="M111.6,396.6c4.6-1.2,9.2-2.3,13.8-3.4c3.4-0.8,6.5-1.4,9.9-1.9c1.3-0.2,2.6-0.3,3.9-0.4
		c0.7-0.1,1.4,0,2.1,0.2c0.3,0.2,0.6,0.3,0.9,0.6c-0.2-0.2,0.1,0.2,0.1,0.2c-0.1-0.4,0,0,0,0.1s0.1,0.4,0,0c0,0.2,0,0.4,0,0.6
		c0,0.1-0.1,0.4,0,0c-0.1,0.5-0.3,1-0.6,1.5c-1.4,1.9-3.2,3.4-5.3,4.4c-1.1,0.5-1.5,1.8-1,2.8c0.5,1,1.6,1.4,2.6,1.1l0.2,0l0.2-0.1
		c0.4-0.1-0.6,0.1-0.1,0c0.3,0,0.6-0.1,0.9-0.1h0.4c0.6,0-0.1,0,0.2,0l0.5,0.1l0.2,0c0.3,0.1-0.4-0.2-0.1,0l0.4,0.2
		c0.2,0.1-0.1-0.1-0.1-0.1c0.1,0.1,0.2,0.2,0.3,0.3c0,0,0-0.2,0,0.1s0-0.1,0.1,0.2c0.1,0.4,0.1,0.9,0,1.4c-0.6,4.6-5.3,7.8-9,10.1
		c-0.9,0.5-1.7,1-2.6,1.5c-0.3,0.2-2,0.9-0.6,0.3c-1.1,0.3-1.9,1.4-1.9,2.6c0.1,1.1,1.1,1.9,2.2,1.8c0,0,0,0,0,0c0.8,0,1.7,0,2.5,0
		h0.5h0.2c0.5,0,0.9,0,1.4,0.1c0.9,0.1,1.9,0.2,2.8,0.3c0.4,0.1,0.9,0.1,1.3,0.2c0.2,0,0.4,0.1,0.6,0.1s0.8,0.2,0.6,0.2
		s0.7,0.2,0.9,0.4l0.5,0.2c0.2,0.1,0.6,0.4,0.2,0.1c0.2,0.2,0.8,0.8,0.4,0.3c0.1,0.1,0.1,0.2,0.2,0.4c0.2,0.3-0.3-0.3,0,0.1
		s-0.1,0,0,0s-0.2,0.4,0,0c-0.2,0.3,0.4-0.7,0.1-0.3c0,0,0.5-0.6,0.3-0.4c-0.1,0.1-0.3,0.2,0.1-0.1c0.6-0.4,0,0,0,0
		c-0.5,0,0.3-0.1,0.2-0.1c-0.2,0-0.3,0.1-0.4,0.2c-0.4,0.1-0.7,0.2-1.1,0.3s-0.8,0.1-0.1,0l-0.7,0.1c-2.5,0.4-5,0.6-7.5,0.7
		c-7.5,0.4-14.9,0.3-22.4,0.1c-8.6-0.2-16.9-0.6-25.6-1.2c-7.2-0.5-14.3-1.1-21.4-2c-2.2-0.3-4.5-0.6-6.7-1.1
		c-0.4-0.1-0.7-0.2-1.1-0.3c0.7,0.1,0.1,0-0.3-0.1c-0.1,0-0.2-0.1-0.3-0.1c-0.4-0.1,0.5,0.4,0.1,0.1c-0.1-0.1-0.3-0.3,0,0s0,0,0-0.1
		c0-0.1-0.1-0.2-0.1-0.2c-0.2-0.2,0.1,0.5,0,0.1c0-0.2-0.1-0.4-0.2-0.7s-0.1-1-0.1-0.4c0-0.6,0-1.3,0-1.9c0-0.8,0.1-1.6,0.3-2.4
		c0-0.4,0.1-0.8,0.2-1.2c0-0.2,0.1-0.4,0.1-0.6v0l0.1-0.4c0.9-4.1,2-8.1,3.4-12.1c1.3-4,2.8-7.9,4.5-11.7c0.4-0.8,0.7-1.7,1.1-2.5
		c-0.2,0.4,0,0,0.1-0.1l0.2-0.5c0.2-0.3,0.3-0.7,0.5-1c0.5-1,1.2-1.9,1.8-2.9c0.2-0.3-0.4,0.4-0.2,0.2c0.1,0,0.1-0.1,0.2-0.2
		c0.3-0.5-0.2,0.1-0.2,0.1c-0.2,0.1-0.7,0.4-0.8,0.3c0.2,0,0.3,0,0.5,0c0.3-0.1-0.6-0.1-0.2,0h0.3l0.8,0.1c0.7,0.1,1.3,0.2,2,0.4
		c3.7,0.8,7,1.9,10.5,3c6.9,2.2,13.7,4.6,20.5,7l1.2,0.5c1,0.4,2.2,0.2,2.9-0.6l5.5-6.4c0.8-0.9,1.2-2.3,0.1-3.1
		c-1-0.8-2.5-0.6-3.4,0.3l-5.6,6.4l2.9-0.6c-5.6-2.1-11.3-4-16.9-5.9c-4.2-1.4-8.5-2.8-12.8-4c-2.5-0.7-5.5-1.7-8.2-1.5
		s-4.1,3.2-5.2,5.3c-1.8,3.6-3.4,7.2-4.8,11c-1.6,4.3-3.1,8.6-4.3,13c-1.1,3.7-1.8,7.4-2,11.3c0,2.4,0.3,5.1,2.7,6.2
		c1.7,0.6,3.6,1.1,5.4,1.3c6.7,1.1,13.6,1.7,20.4,2.2c9.1,0.7,18.1,1.2,27.2,1.5c8.2,0.3,16.4,0.5,24.6,0.2c2.9-0.1,5.8-0.2,8.6-0.6
		c1.9-0.2,4.1-0.5,5.8-1.5c1.1-0.6,1.8-1.7,1.9-2.9c0.1-1.9-0.9-3.8-2.7-4.6c-3.3-2-7.8-2.1-11.6-2.2c-0.9,0-1.7,0-2.6,0l0.4,4.3
		c4.3-1.9,8.2-4.5,11.5-7.8c2.5-2.3,4.1-5.4,4.5-8.8c0.3-2.8-1.1-5.2-3.9-5.9c-1.7-0.3-3.4-0.2-5.1,0.3l1.6,3.9
		c3.7-2,8.4-5.6,8.6-10.3c0.1-4.4-4.5-5.6-8.1-5.5c-3.6,0.3-7.2,0.9-10.7,1.7c-3.8,0.8-7.7,1.7-11.5,2.6c-2.1,0.5-4.2,1.1-6.3,1.6
		C107.6,393.1,108.4,397.3,111.6,396.6L111.6,396.6z"></path><path class="st2" d="M118.7,406.9c7.9-0.1,15.2-3.1,22.4-6c1.1-0.4,0.3-1.6-0.3-2c-1-0.7-2.3-0.9-3.4-0.5
		c-6.5,2.7-13.3,5.6-20.4,5.7c-0.8,0-1.9,0.5-1.4,1.5S117.8,406.9,118.7,406.9L118.7,406.9z"></path><path class="st0" d="M173.2,374.9c-2.3-0.5-4.6-0.3-6.8,0.5c-2.5,0.7-4.6,2.2-6.1,4.3c-1,1.5-1.2,3.3-0.8,5
		c0.7,1.8,2.2,3.2,4.1,3.7c2.6,0.8,5.3,1,8,0.6c1.2-0.2,2.3-0.7,3.2-1.5c0.2-0.1,0.6-0.5,0.5-0.7s-0.7-0.1-0.9-0.1
		c-1.9,0.3-3.8,0.2-5.7-0.3c-1.6-0.3-3.1-1.1-4.1-2.4c-0.8-1.2-1-2.7-0.6-4.1c0.2-0.7,0.4-1.3,0.8-1.8c0.1-0.1,0.2-0.3,0.3-0.4
		s0.4-0.4,0.2-0.2l0.4-0.3c-0.1,0-0.3,0.2,0,0s0.1,0-0.1,0c0.1,0,0.3-0.2,0,0c-0.5,0.3,0.6-0.2-0.3,0.1c0,0,0.3-0.1,0,0s0.1,0,0.1,0
		l0.3-0.1c-0.4,0.1,0,0,0.1,0h0.3h0.1c0.9-0.1,1.8,0,2.7,0.2c1.1,0.1,2.1-0.2,3-0.8c0.5-0.2,0.9-0.5,1.2-0.9c0.1-0.1,0.4-0.5,0-0.6
		L173.2,374.9z"></path></g></svg>