<svg transform="scale(1)" version="1.1" id="g433S03F5C" xmlns="http://www.w3.org/2000/svg" xmlns:xlink="http://www.w3.org/1999/xlink" x="0px" y="0px" viewBox="0 0 500 500" xml:space="preserve" class="pbimage_pbimage__wrapper__image__0LEis false"><title>Product Development 1</title><style type="text/css"> .st0{fill:#FFFFFF;} .st1{fill:#000005;} .st2{fill:#59BE4C;}
 .st2{fill:#59BE4C;}
 .st1{fill:#000005;}
 .st0{fill:#FFFFFF;}</style><g id="character"><path class="st0" d="M288.1,241.9c2-2.5,7.7-10.6,4.6-23.2s4.8-19.4,16.9-26.2s19.4,2,9.6,8.9s-9.6,9.4-9.6,9.4s9.5-5.6,19.7-5.4
		s16.7,5.4,13.7,8.9s-12.9,1.9-17.6,4.9c0,0,18.8,2.1,19.4,10.5s-17.2,3.6-17.2,3.6s9,13.5,3.6,24.5c-5.4,11-19.9,16.8-19.9,16.8
		s-33.6,73.4-71.5,51.9s-43.7-51.9-43.7-51.9l26.4-21.4C222.5,253.2,244.9,295.7,288.1,241.9z" fill="#FFFFFF"></path><path class="st1" d="M289.4,244c3.6-4.6,5.6-10.2,5.6-16c0-2.3-0.2-4.5-0.7-6.7c-0.5-2-0.8-4-0.9-6c0-3.3,1-6.5,2.9-9.2
		c2.1-2.9,4.8-5.3,7.7-7.3c3.4-2.4,7.2-5,11.2-6.1c1.7-0.6,3.5-0.7,5.2-0.4c0.6,0.1,1.3,0.3,1.8,0.6c0.2,0.1,0.4,0.3,0.7,0.4
		c-0.8-0.4,0.2,0.1,0.2,0.1s-0.8-1.5-0.9-1.5c0.2,0.1,0.1,1.2,0,1.4c-0.1,0.7-0.3,1.4-0.7,2c-0.9,1.6-2.2,2.9-3.8,3.9
		c-3,2.2-6.2,4.4-8.5,7.4c-0.7,0.7-1.1,1.6-1.1,2.5c0,0.6,1.8,4.3,2.6,3.8c6.3-3.7,14.3-5.9,21.6-5.2c2.4,0.2,4.7,0.8,6.9,1.6
		c0.8,0.3,1.6,0.7,2.3,1.2c0.3,0.2,0.6,0.4,0.9,0.7c0.2,0.2,0.4,0.6,0.2,0.2c0.1,0.2-0.6-1.1-0.6-1.1s0.1,0.1,0,0.2s0,0.4-0.1,0.6
		c-0.2,0.6-0.5,1.1-1,1.5c-1.3,1-2.8,1.6-4.5,1.8c-4.2,0.8-9,0.5-12.7,2.7c-0.7,0.4,1.7,4.2,2.4,4.3c1.9,0.2,3.8,0.6,5.7,1
		c3.5,0.7,6.8,2,9.9,3.9c0.6,0.4,1.2,0.9,1.7,1.4c-0.3-0.3,0.3,0.4-0.1-0.1c-0.1-0.2-0.2-0.4-0.3-0.6s0,0.1,0.1,0.5
		c0.2,1.3-0.2,2.5-1.2,3.4c-2.3,1.9-6,1.6-8.8,1.4c-2.4-0.2-4.7-0.6-7-1.2c-0.8-0.2,0.9,2.8,1,3s-0.4-0.7-0.2-0.4s0.2,0.3,0.3,0.5
		l0.4,0.7c-0.4-0.7,0.2,0.4,0.3,0.6c0.9,1.7,1.6,3.6,2.2,5.4c1.6,5.4,1.6,11.2-1.3,16.1c-2.7,4.3-6.4,8-10.8,10.8
		c-1.6,1.1-3.4,2.1-5.1,3c-1,0.5-2,0.9-3,1.4c-0.5,0.3-0.7,0.9-1,1.4c-0.7,1.5-1.5,3-2.3,4.5c-2.8,5.3-5.9,10.5-9.2,15.5
		c-4.2,6.5-9,12.5-14.3,18.1c-5.2,5.5-11.2,10.5-18.2,13.6c-6.4,3.1-13.8,3.7-20.6,1.7c-5-1.6-9.6-4.6-13.9-7.5
		c-5-3.4-9.7-7.2-14-11.4c-3.4-3.3-6.5-6.9-9.2-10.7c-1.3-1.9-2.2-3.1-3.3-5s-1.5-2.6-2.5-4.5l-0.6-1.1c-0.3-0.6,0.2,0.4-0.1-0.2
		c-0.1-0.2-0.2-0.4-0.2-0.5c-0.3-0.7-0.6-1.4-0.9-2s-0.5-1.1-0.7-1.7s0.1,0.4,0-0.1c0-0.1-0.1-0.3-0.2-0.4l-0.3-0.9
		c-0.3-0.9-0.6-1.8-0.9-2.7c-0.1-0.3-0.2-0.6-0.2-0.9c0-0.1,0.1,0.4,0-0.1l-0.1-0.4c0-0.2-0.1-0.4-0.1-0.5l-0.1,0.5l23.2-18.6
		l3.3-2.7l-2.1-2.4c2.8,5.2,6.8,9.8,11.6,13.3c3.7,2.8,8.1,4.5,12.7,5c6.1,0.6,12.2-1.1,17.6-3.9C273.9,261.8,282.2,253,289.4,244
		c0.8-0.9-2.4-4.5-2.6-4.2c-6.5,8.1-13.8,15.9-22.7,21.4c-5.3,3.3-11.4,5.8-17.8,5.8c-4.6,0-9-1.2-12.9-3.6c-1.7-1-3.3-2.2-4.8-3.6
		l-0.3-0.3l-0.4-0.4c-0.3-0.3-0.6-0.6-1-1s-0.5-0.5-0.8-0.8s0.3,0.4,0,0l-0.1-0.2l-0.4-0.5c-0.2-0.3-0.5-0.6-0.7-0.9l-0.3-0.4
		c0.5,0.7,0.1,0.1,0-0.1s-0.4-0.5-0.6-0.8l-0.2-0.4c-0.3-0.5-0.1,0,0.1,0.2c-0.2-0.1-0.5-0.8-0.6-1c-0.3-0.6,0.4,0.7,0.1,0.2
		c-0.1-0.2-1.6-2.8-2.1-2.4l-23.1,18.8l-3.3,2.7c-0.1,0.1-0.1,0.3-0.1,0.5c0.7,3.3,1.8,6.5,3.2,9.5c3.4,7.9,7.9,15.2,13.4,21.8
		c7.9,9.4,17.4,17.4,28.1,23.5c3.6,2.2,7.6,3.8,11.7,4.5c3.6,0.5,7.3,0.4,10.9-0.5c7.5-1.8,14-6.2,19.7-11.2
		c5.9-5.4,11.2-11.5,15.8-18.1c3.9-5.6,7.6-11.3,10.8-17.3c1.1-2,2.1-3.9,3.1-5.9c0.3-0.9,0.7-1.8,1.3-2.6c0.1-0.1-0.2,0.2,0,0.1
		s0.6-0.3,1-0.4c1.4-0.6,2.8-1.4,4.2-2.2c4.3-2.4,8.2-5.5,11.4-9.2c1.8-2.1,3.3-4.6,4.2-7.2c0.8-2.7,1.1-5.5,0.8-8.2
		c-0.6-4.9-2.2-9.7-4.7-14c-0.6-1-1.1-2-1.8-3l1,3c2.2,0.6,4.5,1,6.8,1.2c2.9,0.3,7.3,0.7,9.6-1.6c3-3-0.2-8.2-2.4-10.6
		c-2.7-3-6.6-4.6-10.3-5.7c-2.6-0.8-5.4-1.4-8.1-1.7l2.4,4.3c3.7-2.2,8.6-1.9,12.7-2.7c3.1-0.6,6.6-2.2,5.3-6
		c-3.6-10.3-17.5-10.5-26.3-8.2c-3.6,0.9-7,2.3-10.2,4.1l2.6,3.8c0,0.5,0,0,0.1-0.3c0.2-0.6,0.6-1.1,1-1.5c2.4-2.7,5.1-5.1,8.2-7.1
		c2.6-1.8,5.4-4.6,4.8-8.1c-0.6-3.2-3.1-6.6-6.3-7.4c-4-1-8.1,0.9-11.5,2.8c-3.6,2-7,4.3-10.1,7.1c-2.6,2.3-4.6,5.2-5.7,8.5
		c-1.2,3.8-0.7,7.6,0.2,11.4c1.8,7.6,0,15.6-4.7,21.8C286,240.7,289.1,244.3,289.4,244z" fill="#000005"></path><path class="st1" d="M361.2,210l-88.1,15.2c0,0-1.1,5.1,0.1,6.8s92.2-13.1,92.2-13.1l7.3-6.1L361.2,210z" fill="#000005"></path><path class="st1" d="M360,207.9l-8.8,1.5l-21,3.6l-25.5,4.4l-22,3.8l-7.3,1.3c-1.2,0.1-2.3,0.3-3.5,0.6c0,0-0.1,0-0.1,0
		c-0.2,0-0.4,0.2-0.5,0.4c-0.5,2.4-0.9,5.2,0,7.6c0.6,1.6,1.9,3.1,3.6,3.1c2,0,3.9-0.1,5.8-0.4c8.3-0.9,16.5-2.1,24.8-3.3
		c10.4-1.5,20.7-3.1,31.1-4.7c8.1-1.3,16.2-2.5,24.2-3.8c1.8-0.3,3.6-0.5,5.3-0.9c0.5-0.1,0.9-0.3,1.2-0.7l5.3-4.5l1.4-1.1
		c1.3-1.1-1.4-3.8-2.4-4l-11.5-2.8c-1.1-0.3-0.9,1-0.7,1.7c0.4,1.1,1.3,2,2.4,2.4l11.5,2.8l-2.4-4l-4,3.4l-2.5,2.1
		c-0.2,0.2-0.4,0.3-0.6,0.5c-0.2,0.2,0.2,0,0.2,0c-1.2,0.3-2.4,0.4-3.6,0.6c-7.1,1.1-14.1,2.3-21.2,3.4c-9.9,1.6-19.9,3.1-29.8,4.6
		c-8.8,1.3-17.6,2.6-26.5,3.7c-2.7,0.3-5.5,0.7-8.2,0.9c-0.7,0-1.5,0.1-2.2,0.1c-0.4,0,0.2,0.1,0,0s-0.2,0-0.2,0
		c0.7,0.4,1.4,1,1.9,1.7c0.2,0.2,0.1,0.7,0.1,0.2c0-0.1,0-0.2,0-0.3c-0.1-0.7-0.1-1.4,0-2.2c0-0.9,0.2-1.7,0.3-2.6l-0.5,0.4l8.8-1.5
		l21-3.6l25.5-4.4l22-3.8l7.3-1.2c1.2-0.1,2.3-0.3,3.5-0.6h0.1C364.1,211.8,361.5,207.6,360,207.9z" fill="#000005"></path><path class="st0" d="M325.5,246.4c0,0-2.7-7.9-12.7-11.4c0,0,11-10.1,3.3-13.4s-17.4,5.5-23.2,16.6" fill="#FFFFFF"></path><path class="st1" d="M327.5,246.9c-2.2-6.4-8.6-11.4-14.8-13.6l2,3.4c1.3-1.2,2.5-2.6,3.6-4c1.6-2.2,3.3-5.1,2.5-7.9
		c-1.1-3.7-5.3-5.7-8.9-5.8c-4-0.1-7.8,2.1-10.8,4.7c-4.2,3.7-7.6,8.2-10.1,13.3c-0.8,1.6,3.1,4.6,4.1,2.7c2-3.9,4.6-7.5,7.7-10.7
		c2.5-2.5,5.5-4.9,9-5.7c1.3-0.3,2.7-0.3,4,0.1c0.3,0.1,0.5,0.2,0.8,0.3c-0.3-0.2,0.6,0.3,0.2,0.1c0,0,0,0,0,0s0,0,0,0
		c0,0.1,0.1,0.2,0.1,0.3c0-0.3,0,0.4,0,0.4c0,0.2,0,0.4,0,0.6c-0.1,0.6-0.3,1.1-0.5,1.6c-0.5,1.1-1.1,2.1-1.8,3.1
		c-1,1.4-2.2,2.7-3.5,3.8c-1.1,1,1.1,3.1,2,3.4c2,0.7,3.9,1.6,5.6,2.9c1.1,0.9,2.1,1.9,3,3c0.3,0.4,0.6,0.8,0.8,1.2
		c0.3,0.4,0.5,0.9,0.8,1.3l0.3,0.5c-0.2-0.3-0.1-0.3,0,0c0,0.1,0.1,0.2,0.1,0.3c0.4,1.2,1.4,2,2.6,2.4
		C327.1,248.7,327.8,248,327.5,246.9L327.5,246.9z" fill="#000005"></path><path class="st1" d="M69.2,342.4c0,0-67.1-11.3-20.6-68.3C80.5,235,164,162.2,207.6,172.5s36.7,155.4,22.2,171.6
		S69.2,342.4,69.2,342.4z" fill="#000005"></path><path class="st1" d="M67.5,341.1c-1.1-0.2-2.2-0.5-3.3-0.7l-0.8-0.2c0.5,0.1,0,0-0.1,0l-0.5-0.1l-2-0.6c-0.7-0.2-1.4-0.5-2.2-0.7
		l-1.1-0.4l-0.6-0.2c0.5,0.2-0.2-0.1-0.3-0.1c-0.8-0.3-1.6-0.6-2.4-1l-0.5-0.2l-0.3-0.2l0.1,0.1l-1.3-0.6l-1.3-0.6
		c-0.4-0.2,0.5,0.3-0.1-0.1L50,335l-0.6-0.4c-0.1-0.1-0.9-0.5-0.2-0.1l-1.3-0.8l-0.6-0.4c-0.5-0.3,0.3,0.2-0.3-0.2
		c-0.4-0.3-0.8-0.6-1.2-0.9c-0.6-0.4-0.4-0.3-0.9-0.7l-1.2-1c-1.5-1.3-2.8-2.7-4.1-4.3c-6.1-7.9-6.3-18-3.1-27.1
		c4.7-13.6,14.6-24.9,24.2-35.3c10-10.8,20.5-21.1,31.6-30.9c12.2-10.9,25-21,38.4-30.4c12.4-8.6,25.4-16.6,39.3-22.4
		c10.7-4.5,22.7-8.3,34.4-7.2c1.2,0.1,2.5,0.3,3.7,0.5c0.9,0.2,1.8,0.4,2.6,0.7l0.4,0.2l0.4,0.2l0.5,0.2c-0.6-0.3,0.1,0,0.2,0.1
		c0.5,0.2,0.3,0.2,0.1,0.1c0.2,0.1,0.4,0.2,0.6,0.3c0.4,0.2-0.5-0.3,0.1,0l0.6,0.4c-0.6-0.4,0.1,0,0.2,0.1l0.6,0.4
		c0.2,0.1-0.2-0.1,0.2,0.1l0.6,0.5c0.7,0.6,1.3,1.2,1.9,1.8c1.4,1.4,2.6,2.9,3.7,4.6c5.6,8,8.8,17.6,11.1,26.9
		c2.8,11.7,4.7,23.6,5.5,35.6c0.9,12.4,1.2,24.8,0.8,37.2c-0.3,11.1-1.3,22.2-2.8,33.1c-1.1,7.5-2.4,15.3-5.4,22.3
		c-0.7,2-1.9,3.9-3.5,5.3c-2.1,1.5-4.5,2.5-7,3c-8.4,2.2-17.3,2.5-26,2.8c-11.7,0.3-23.4,0-35.1-0.5c-12.5-0.6-24.9-1.4-37.3-2.4
		c-10.7-0.9-21.3-1.9-31.9-3c-6.4-0.7-12.8-1.4-19.3-2.1L67.5,341.1c-1-0.2,0.2,0.8,0.5,0.9c0.9,0.8,1.9,1.3,3.1,1.6
		c3.6,0.4,7.2,0.8,10.9,1.2c9.1,1,18.3,1.9,27.4,2.8c12.1,1.1,24.2,2.1,36.4,2.9c12.5,0.8,25.1,1.4,37.6,1.5
		c10.4,0.3,20.9-0.1,31.2-1.2c3.7-0.4,7.3-1.1,10.8-2.1c2.2-0.7,4.8-1.6,6.4-3.4c1.5-1.8,2.6-3.9,3.4-6.1c1.2-3.4,2.2-6.9,2.9-10.4
		c2-9.9,3.4-20,4-30.1c0.9-12.3,1.1-24.7,0.7-37.1c-0.4-12.5-1.6-24.9-3.7-37.2c-1.9-10.6-4.5-21.4-9.2-31.1
		c-3.8-7.9-9.1-15.1-17-19.3c-9.4-5-20.5-4.4-30.5-1.9c-13.5,3.3-26.3,9.6-38.2,16.6c-14,8.4-27.4,17.8-40,28.1
		c-12.5,10.1-24.4,20.8-35.8,32c-5,4.9-9.8,10-14.5,15.2c-4.9,5.3-9.4,10.9-13.6,16.9c-6.7,9.8-12.7,22.3-9.4,34.4
		c2.3,8.6,9.2,14.9,16.6,19.3c6.3,3.7,13.1,6.5,20.3,8.3c1.1,0.3,2.1,0.5,3.2,0.7s-0.2-0.9-0.5-1C69.6,342,68.6,341.4,67.5,341.1z" fill="#000005"></path><path class="st2" d="M250.1,394.7c0,0,54.3-148.1,46.5-149.5s-124.8-14.1-131.1,0c-6.3,14.1-42.3,146-36.7,149.5
		S250.1,394.7,250.1,394.7z" fill="#59BE4C"></path><path class="st2" d="M252.2,396.1c1.3-3.6,2.6-7.2,3.9-10.7c3.2-9,6.4-18,9.6-26.9c4.1-11.7,8.2-23.5,12.2-35.2
		c4-11.8,8-23.7,11.7-35.6c2.9-9.3,5.8-18.6,8.1-28.1c0.7-2.9,1.3-5.8,1.7-8.8c0.2-1.5,0.4-3.4-0.8-4.5c-1.2-1.3-2.8-2.2-4.6-2.5
		c-1-0.1-2-0.3-3-0.4c-3.6-0.5-7.2-0.9-10.9-1.2c-11.6-1.2-23.2-2.2-34.8-3c-13.4-1-26.8-1.7-40.2-1.8c-10.6-0.1-21.5-0.2-31.9,1.9
		c-2.8,0.6-6.1,1.3-8.4,3.1c-1.6,1.2-2.1,3.4-2.8,5.2c-2.9,8.2-5.3,16.6-7.7,24.9c-3.6,12.3-7,24.7-10.4,37.1
		c-3.5,13.1-6.8,26.2-9.9,39.3c-2.5,10.4-4.9,20.8-6.7,31.3c-0.6,3.1-1,6.3-1.2,9.5c-0.1,0.9,0,1.8,0.1,2.7c0.3,1.4,1.7,2.3,2.8,3
		c2.1,1.3,4.5,1.5,6.9,1.7c3.9,0.3,7.9,0.4,11.9,0.5c11.9,0.3,23.7,0.2,35.6,0c12.8-0.1,25.7-0.4,38.6-0.7
		c8.8-0.2,17.5-0.4,26.3-0.7l3.8-0.1c0.6,0-1-1.4-1.1-1.4c-0.6-0.5-1.8-1.5-2.7-1.5c-4.8,0.2-9.7,0.3-14.6,0.4
		c-11.3,0.3-22.6,0.5-33.9,0.8c-12.8,0.2-25.6,0.4-38.4,0.4c-9.5,0-19,0.1-28.4-0.6c-1.3-0.1-2.6-0.2-3.8-0.4l-0.7-0.1l-0.3-0.1
		c-0.3-0.1,0.1,0-0.1,0l-0.4-0.1c-0.3-0.1,0.3,0.1,0.2,0.1c0.6,0.4,1.3,0.8,1.9,1.2c-0.6-0.5,0.9,0.9,1,0.9s-0.1-0.1-0.1-0.1
		s0.1,0.3,0.1,0.1s-0.1-0.2-0.1-0.4c-0.1-0.3-0.1-0.6-0.1-1c-0.1-1,0-2.1,0.1-3.1c0.6-8.2,2.6-16.4,4.3-24.5
		c2.7-12.2,5.6-24.4,8.7-36.5c3.3-13,6.8-26,10.4-38.9c2.9-10.5,5.9-21.1,9.2-31.5c1-3.3,2.1-6.7,3.3-9.9c0.6-1.8,1.2-3.9,2.8-5.1
		c2.4-1.8,5.6-2.4,8.4-3c4.6-0.8,9.3-1.3,13.9-1.5c12.5-0.7,25-0.3,37.4,0.3c13,0.6,25.9,1.5,38.9,2.7c8.9,0.8,17.8,1.6,26.6,2.7
		l3.3,0.4c0.3,0.1,0.6,0.1,0.9,0.1c0.2,0-0.1,0-0.1,0l-0.3-0.1c-1-0.5-1.9-1.1-2.8-1.9c-0.2-0.2-0.2-0.4-0.2-0.2
		c0.2,1.6,0.2,3.2,0,4.8c-1.1,7.6-3.4,15.1-5.6,22.5c-3.2,11-6.8,22-10.4,32.9c-3.9,12-8,23.9-12.2,35.8c-3.6,10.5-7.3,20.9-11,31.3
		c-2.3,6.4-4.6,12.7-6.9,19.1c-0.3,0.9-0.6,1.7-0.9,2.6S252.1,396.3,252.2,396.1z" fill="#59BE4C"></path><path class="st0" d="M172.6,245.6c0,0-38.2,96.4-2.9,165.3h119c0,0-30.5-88.6,8.6-162.5C297.4,248.4,190.9,235.8,172.6,245.6z" fill="#FFFFFF"></path><path class="st2" d="M170.4,244.6c-1.3,3.3-2.5,6.8-3.6,10.2c-2.8,8.8-5.2,17.7-7.3,26.7c-2.8,12.4-4.9,25.1-6.1,37.8
		c-1.4,14.3-1.3,28.8,0.2,43.1c1.5,14.9,5.4,29.5,11.5,43.1c0.8,1.7,1.6,3.4,2.4,5c0.8,1.1,2.1,1.8,3.5,1.8h104.3
		c4.8,0,9.7,0.1,14.5,0h0.2c0.3,0,1.2-0.1,1-0.7c-1-3.1-1.9-6.2-2.7-9.4c-2.2-8.2-3.9-16.6-5.2-25c-1.9-11.8-3-23.8-3.3-35.8
		c-0.4-14.2,0.7-28.5,3.1-42.5c2.7-15.3,7.4-30.1,14.1-44.2c0.9-1.8,1.8-3.6,2.7-5.4c0.6-1.2-2.4-2.3-3-2.4
		c-3.6-0.4-7.2-0.8-10.9-1.2c-8.9-0.9-17.9-1.8-26.8-2.6c-11.2-1-22.4-1.8-33.6-2.3c-10.5-0.5-21.1-0.8-31.6-0.4
		c-4.2,0.1-8.5,0.4-12.7,1c-3,0.3-6,1-8.9,2.1c-0.5,0.2-1.1,0.5-1.6,0.7c-0.9,0.5,0.7,1.7,1,1.9c0.8,0.5,2.2,1.1,3.1,0.6
		c0.2-0.1,0.4-0.2,0.7-0.3l0.4-0.2l0.2-0.1c0.6-0.2,1.2-0.4,1.8-0.6c1.4-0.4,2.9-0.7,4.4-1c3.8-0.6,7.6-1,11.4-1.1
		c10.2-0.5,20.5-0.3,30.7,0.1c11.2,0.5,22.4,1.2,33.6,2.1c5,0.4,10,0.9,15,1.3l6.6,0.6l1.5,0.1l0.8,0.1c0.1,0,0.9,0.1,0.5,0.1
		l2.8,0.3c4.3,0.4,8.7,1.2,13,1.4h0.2l-3-2.4c-7.3,14-12.6,28.9-15.8,44.3c-2.9,14.1-4.3,28.4-4.3,42.8c0,12.5,0.9,24.9,2.7,37.2
		c1.3,9,3,17.9,5.2,26.6c0.7,2.7,1.4,5.3,2.2,8c0.2,0.8,0.5,1.6,0.7,2.4c0.1,0.4,0.2,0.8,0.4,1.2c0,0,0,0.1,0,0.2l1-0.7H183.1
		c-4.8,0-9.7-0.2-14.5,0h-0.2l3.5,1.8c-6.6-13.3-11-27.7-13-42.5c-1.9-14.3-2.4-28.8-1.2-43.2c1-12.9,2.8-25.8,5.6-38.4
		c2-9.5,4.5-18.9,7.4-28.1c0.9-2.8,1.8-5.7,2.8-8.5c0.4-1.3,1.1-2.6,1.4-3.9c0-0.1,0-0.1,0.1-0.2
		C175.5,245.2,170.9,243.2,170.4,244.6z" fill="#59BE4C"></path><path class="st2" d="M192.8,236.3c0.2-1.4,1.8-2.4,3-2.8c1.5-0.5,3.1-0.6,4.7-0.3c3.3,0.6,6,2.8,7.2,5.9
		c2.5,6.8-3.4,14.3-10.7,13.6c-3.1-0.3-2.8,4.3-0.1,4.6c7.7,0.9,14.8-4.6,15.7-12.3c0-0.4,0.1-0.7,0.1-1.1
		c0.2-8.3-6.4-15.2-14.8-15.4c-0.1,0-0.2,0-0.3,0c-4.3,0-8.6,2.5-9.2,7C187.9,238,192.3,239.4,192.8,236.3L192.8,236.3z" fill="#59BE4C"></path><path class="st2" d="M233.2,237c-1.3-2.7,1.6-4.9,4.1-4.6c3.2,0.4,6.1,3.5,8,5.9c1.2,1.3,2.2,2.9,2.8,4.6c0.5,1.7-0.5,3.1-1.6,4.3
		c-2.1,2.5-4.9,4.3-8.1,5.2c-1.1,0.3-2,1.2-1.6,2.4c0.6,1.2,1.9,1.8,3.1,1.6c3.6-0.9,6.8-2.8,9.4-5.4c1.3-1.2,2.4-2.7,3.2-4.4
		c0.7-1.9,0.6-4.1-0.4-5.9c-1.9-3.5-4.4-6.6-7.6-9c-3.1-2.4-7.1-4.1-11.1-3.1s-7,5.2-5.1,9.2c0.6,1.2,1.9,1.8,3.1,1.6
		C232.7,239.2,233.7,238.2,233.2,237L233.2,237z" fill="#59BE4C"></path><path class="st2" d="M268.2,240.2c0.7-2.9,3.1-5.2,6.1-5.8c3-0.6,5.6,0.8,7.4,3.2c3.2,4.3,5.2,12.7,0.8,16.8
		c-1.6,1.3-3.5,2.2-5.6,2.7c-2,0.6-4.4,1.1-6.3,0.1c-0.5-0.4-1.3-0.3-1.7,0.3c-0.1,0.2-0.2,0.5-0.2,0.7c0,1.3,0.6,2.4,1.7,3.1
		c2.1,1.1,4.6,1.3,6.9,0.7c2.3-0.5,4.6-1.4,6.6-2.6c3.6-2.4,4.8-6.6,4.6-10.8c-0.4-7.6-5.1-19-14.2-19.1c-4.5,0.1-8.4,3.1-9.5,7.5
		c-0.2,1.2,0.2,2.5,1.2,3.3C266.6,241,268,241.4,268.2,240.2L268.2,240.2z" fill="#59BE4C"></path><path class="st0" d="M139.7,174.3c0,0,95.9,50.8,126.2,34c0,0,14.4-78.4,3.3-94.3c-19.7-28.4-69.5-31.2-83.6-15.3
		C156.7,131.3,139.7,174.3,139.7,174.3z" fill="#FFFFFF"></path><path class="st1" d="M137.4,175.4c5.9,3.1,11.9,6,17.9,8.8c13.3,6.3,26.9,12.1,40.8,17.1c14.3,5.2,29.3,9.9,44.5,11.3
		c6,0.7,12.1,0.4,18-0.9c1.4-0.4,2.8-0.8,4.2-1.4c0.8-0.3,1.5-0.6,2.2-1c0.9-0.4,2.4-0.9,2.9-1.8c0.3-0.6,0.4-1.3,0.4-2
		c2-11.3,3.6-22.6,4.9-34c0.9-8,1.6-15.9,2-23.9c0.5-7.2,0.4-14.3-0.3-21.5c-0.5-5.1-1.4-10.2-4.5-14.4c-5.4-7-12.3-12.5-20.3-16.3
		c-14.8-7.2-33.1-9.9-49.2-5.6c-7.1,1.9-13.8,5.3-18.7,10.9c-7.9,9.1-15,18.8-21.3,29.1c-8.7,13.8-16.3,28.2-22.7,43.2
		c-0.3,0.8-0.6,1.5-1,2.3c-0.2,0.6,1.7-0.2,1.8-0.3c0.7-0.3,2.3-0.9,2.6-1.7c1.8-4.6,3.9-9.2,6.1-13.7c5.2-10.9,11-21.5,17.4-31.7
		c3.9-6.3,8.1-12.4,12.6-18.3c2.3-3,4.7-6,7.1-8.9c1.4-1.9,3.1-3.6,4.9-5.1c0.4-0.3,0.7-0.5,0.8-0.6l0.6-0.4
		c0.1-0.1,0.2-0.2,0.4-0.2l0.6-0.3c0.2-0.1-0.1,0-0.1,0.1l0.4-0.2l0.6-0.3c-0.5,0.2,0.2-0.1,0.4-0.2c0.6-0.3,1.5-0.6,2.4-0.9
		s2.1-0.6,3.1-0.9c4.6-1.1,9.3-1.6,14.1-1.5c10.8,0,21.6,2.4,31.4,6.8c5.1,2.3,9.8,5.3,14.1,8.9c2.1,1.8,4,3.7,5.8,5.8
		c1.3,1.5,2.4,3.1,3.4,4.8c1.3,2.8,2.1,5.7,2.4,8.7c0.6,4,0.9,8,0.9,12c0.1,9.7-0.4,19.4-1.5,29c-0.9,9.1-2.1,18.1-3.4,27.2
		c-0.8,5.1-1.6,10.1-2.5,15.2c0,0.2-0.1,0.5-0.1,0.7l1.4-1.1c-0.3,0.2,0.5-0.2-0.1,0.1l-0.3,0.1c0.4-0.2-0.3,0.1-0.4,0.1
		c-0.5,0.2,0.3-0.1-0.3,0.1l-0.5,0.2c-0.1,0-0.2,0.1-0.3,0.1c-0.4,0.1-0.9,0.3-1.3,0.4c-1.8,0.4-3.7,0.8-5.5,0.9
		c-4.5,0.4-9,0.2-13.4-0.3c-10.8-1.2-21.3-4.1-31.6-7.4c-10.9-3.5-21.5-7.6-32-12c-8.5-3.6-17-7.4-25.3-11.5c-2.7-1.3-5.4-2.7-8.1-4
		c-1.2-0.6-2.6-1.4-3.7-1.9c-0.1,0-0.1,0-0.2-0.1c-0.6-0.3-1.9,0.4-2.4,0.7C139.3,174,137.2,175.3,137.4,175.4z" fill="#000005"></path><path class="st1" d="M179.8,129.1c15.1-0.5,31.4-1.8,44.4-10.2c3.3-2.1,6.3-4.8,8.7-7.9c0.6-0.8,0.2-1.5-0.8-1.4
		c-1.2,0.1-2.4,0.7-3.1,1.6c-4.8,6.1-11.9,9.5-19.2,11.5c-9,2.4-18.4,3-27.7,3.3c-1.2,0.1-2.4,0.7-3.1,1.7
		C178.5,128.5,178.8,129.1,179.8,129.1L179.8,129.1z" fill="#000005"></path><path class="st1" d="M178.4,122.1c15-4.2,31-8.8,41.9-20.7c0.5-0.6,0.5-1.5-0.1-2.1c-0.2-0.1-0.4-0.3-0.6-0.3c-1.2-0.4-2.6,0-3.4,1
		c-10,10.8-25.1,14.8-38.8,18.7c-1,0.3-2.2,1.2-1.9,2.4S177.5,122.4,178.4,122.1L178.4,122.1z" fill="#000005"></path><path class="st0" d="M254.5,195.6c18.8-12.2,9.2-65,9.2-65c-8.1-3.6-20.2-14.8-20.2-14.8c-1.7,26.8-33.7,26.9-33.7,26.9
		c-2.9-15.4-20.3-14.2-22.6-0.4s10.4,18.4,10.4,18.4s-14.7,32-14.7,37.7c0,0,18.4,20.6,37,4.3C220,202.7,241.7,203.9,254.5,195.6z" fill="#FFFFFF"></path><path class="st1" d="M256.8,196.2c5.3-3.5,8-9.6,9.5-15.6c1.7-7.2,2.4-14.7,2.2-22.1c-0.1-6.5-0.5-13.1-1.3-19.5
		c-0.2-2-0.5-4-0.8-6c-0.1-0.5-0.1-1-0.2-1.5c-0.1-0.6-0.4-0.7-1.1-1c-4.6-2.2-8.7-5.4-12.7-8.6c-2.2-1.8-4.5-3.7-6.6-5.7
		c-0.4-0.4-4.8-1.6-4.8-0.8c-0.4,8.4-4.9,16.1-12,20.6c-5.2,3.2-11.1,5.1-17.2,5.8c-1,0.1-1.9,0.2-2.9,0.3h-0.5c0.6,0,0.1,0,0,0
		c-0.1,0-0.2,0-0.3,0l4.1,1.2c-0.9-4.7-3.4-8.8-7.9-10.7c-4-1.8-9.3-2.4-13.3-0.2s-6.1,6.8-6.5,11.3c-0.4,4.7,1.3,9.3,4.6,12.7
		c1.9,1.9,4.2,3.4,6.7,4.4l-0.6-0.5c-2.4,5.3-4.8,10.7-7.1,16.1c-1.8,4.1-3.5,8.3-5,12.6c-0.6,1.7-1.2,3.4-1.8,5.1
		c-0.4,1.1-0.7,2.3-0.8,3.5c0,0.7,0.3,0.9,0.8,1.4c0.9,1,1.9,1.9,3,2.7c3.5,2.8,7.5,5,11.8,6.4c5.4,1.8,11.5,2.4,17,0.6
		c2.3-0.7,4.4-1.8,6.4-3.2l1-0.7c0.3-0.2,1-0.6,1.2-0.9l0.2-0.1l-0.3-0.2l0,0c0,0,0.1,0,0.1,0s0.3,0,0.4,0c0.5,0,1,0,1.5,0
		c9.9,0.1,20.4-1,29.5-5.2C254.3,197.6,255.6,197,256.8,196.2c0.5-0.4-1.5-0.9-1.6-1c-0.7-0.2-2.4-0.7-3.1-0.3
		c-8.6,5.5-19.6,6.9-29.7,7.1c-1.2,0-2.4,0-3.6,0h-0.6c-0.5,0-1,0.2-1.4,0.6c-0.7,0.6-1.5,1.2-2.3,1.8c-2.5,1.7-5.3,2.9-8.2,3.5
		c-1.2,0.2-2.4,0.4-3.6,0.3c-0.9,0-1.7-0.1-2.6-0.3c-3.8-1-7.4-2.9-10.5-5.4c-1.1-0.9-2.2-1.8-3.2-2.8c-0.3-0.3-0.6-0.5-0.8-0.8
		c-0.2-0.2-0.2-0.3-0.2-0.3c0-1,0.2-2,0.6-3c0.4-1.6,1-3.1,1.5-4.7c1.4-4,3-8,4.7-11.9c2.5-6,5.1-12,7.9-17.9
		c0.1-0.2-0.6-0.5-0.6-0.5l-0.4-0.2c-0.1,0-0.5-0.2-0.1,0l-0.7-0.4c-1.1-0.6-2.1-1.3-3.1-2.1c-3-2.4-5-5.9-5.6-9.7
		c-0.6-4.3,0.3-9.2,3.2-12.6c1.2-1.4,2.7-2.4,4.4-3.1c0.8-0.3,1.5-0.5,2.4-0.6c0.3,0,0.6,0,0.9,0c0.7,0-0.4,0,0.3,0
		c-0.1,0-0.3,0-0.4-0.1c0.3,0.1,0.3,0.1,0,0c-0.1,0.1-0.2-0.1,0.1,0c-0.2-0.1,0.4,0.1,0.4,0.1c0.5,0.2,0.9,0.5,1.4,0.8
		c0.8,0.6,1.6,1.3,2.2,2.1c1.6,2,2.6,4.4,3,6.9c0.2,0.9,3.4,1.2,4.1,1.2c3.9-0.1,7.7-0.6,11.4-1.6c6.9-1.8,13.7-5.3,18.1-11.1
		c3-4.2,4.7-9.1,5-14.2l-4.8-0.8c2.4,2.2,4.8,4.3,7.3,6.3c4.2,3.3,8.6,6.7,13.5,8.9l-0.6-0.5c1.1,6.1,1.8,12.3,2.1,18.4
		c0.7,11,0.8,22.7-2.6,33.4c-1.6,5-4.1,10.1-8.6,13c-0.5,0.3,1.4,0.9,1.6,0.9C254.4,196.1,256.2,196.7,256.8,196.2z" fill="#000005"></path><path class="st0" d="M248.8,154.9c3.9,4.8,8.6,9.1,13.7,12.6c17.2,12.2,16.2,19.7,8.7,20.6s-31.7-14.2-31.7-14.2" fill="#FFFFFF"></path><path class="st1" d="M247,155.4c3.9,5.2,9.2,9.6,14.5,13.3c3.6,2.4,6.9,5.3,9.8,8.5c0.9,1,1.6,2.1,2.2,3.3c0.1,0.3,0.2,0.5,0.4,0.8
		c-0.1-0.3,0.1,0.3,0.1,0.4c0.1,0.2,0.1,0.4,0.1,0.6c0,0.1,0,0.2,0,0.3c0.1,0.5,0-0.3,0,0.1c0.1,0.7-0.1,1.3-0.5,1.8
		c-0.1,0.3-0.2,0.3-0.1,0.2c-0.1,0.1-0.3,0.3-0.5,0.4c-0.1,0.1-0.3,0.2-0.5,0.3l-0.2,0.1c-0.3,0.2,0.3-0.1-0.1,0
		c-0.4,0.2-0.8,0.3-1.2,0.4c-0.4,0.1-0.7,0.2-1.1,0.2h-0.6c-0.6,0,0.2,0.1-0.3,0s-1.1-0.2-1.6-0.3l-0.8-0.2c-0.4-0.1,0.3,0.1,0,0
		l-0.5-0.2c-0.7-0.2-1.3-0.4-2-0.7c-1.4-0.5-2.7-1.1-4.1-1.7c-3-1.3-5.4-2.6-8.3-4.2c-3.8-2-7.6-4.2-11.2-6.5
		c-0.8-0.5-2.4-0.9-3,0.1s0.6,2.2,1.3,2.6c3.3,2.1,6.7,4,10.1,5.9c5.8,3.2,11.9,6.4,18.3,8.2c3.6,1,9.5,1.3,11.2-3
		c0.9-2.2,0-4.7-1.1-6.7c-2.1-3.4-4.7-6.3-7.8-8.8c-4.5-3.9-9.6-7-13.9-11.1c-1.8-1.6-3.4-3.4-4.9-5.3c-0.7-1-2-1.5-3.2-1.3
		C246.1,153.5,246.4,154.6,247,155.4L247,155.4z" fill="#000005"></path><path class="st1" d="M239.8,145.6c0,0,3.1,1.2,1.6,4.1s-5,1-4.5-1.8c0.1-1.3,1.2-2.4,2.5-2.3C239.5,145.6,239.6,145.6,239.8,145.6z
		" fill="#000005"></path><path class="st1" d="M259.6,150.2c0,0,3,1.2,1.6,4.1s-5,1-4.5-1.8c0.1-1.3,1.2-2.4,2.5-2.3C259.4,150.1,259.5,150.2,259.6,150.2z" fill="#000005"></path><path class="st1" d="M180.5,159.4c-3.8,8.4-7.9,16.6-12.3,24.7c-1.3,2.4,3.2,4.5,4.5,2.1c4.4-8.1,8.5-16.3,12.3-24.7
		C186.2,159,181.7,156.9,180.5,159.4L180.5,159.4z" fill="#000005"></path><path class="st1" d="M162.4,163l-12.1,9.9c-0.3,0.3-1.7,1.5-0.9,1.9s2.4-0.6,2.9-1.1l12.1-9.9c0.3-0.3,1.7-1.5,0.9-1.9
		S163,162.5,162.4,163L162.4,163z" fill="#000005"></path><path class="st1" d="M164.3,143.4c2.8,1.6,6.5,2.1,9.6,2.4c4.3,0.6,8.6,0.5,12.8-0.3c1.1-0.2,0.6-1.5,0-2c-0.8-0.9-2-1.3-3.2-1.2
		c-3.6,0.7-7.2,0.8-10.8,0.3c-1.6-0.2-3.2-0.4-4.8-0.8l-0.6-0.1c-0.1,0-0.6-0.2-0.3-0.1l-0.3-0.1l-0.4-0.1c-0.2-0.1-0.5-0.2-0.8-0.3
		c0.6,0.2,0.2,0.1-0.1-0.1c-0.7-0.4-2.3-0.9-2.8,0S163.7,143.1,164.3,143.4L164.3,143.4z" fill="#000005"></path><path class="st1" d="M218.3,162.2c-1.3,1.6-1.8,3.6-1.4,5.6c0.4,1.9,1.6,3.5,3.3,4.5c0.5,0.2,0.9,0.4,1.4,0.5
		c0.6,0.2,1.3,0.3,1.9,0.4c0.3,0,0.9,0.2,1.2,0s0-0.2-0.2-0.4c-3.2-2-3.6-6.6-1.3-9.5c0.2-0.2-2.2-0.9-2.4-0.9
		c-0.6-0.1-1.2-0.2-1.8-0.3C218.9,162.1,218.5,162,218.3,162.2L218.3,162.2z" fill="#000005"></path><path class="st0" d="M145.7,314.4c0,0,27.3-5.2,37.1-4.8s8.4,9.4-3.6,14.9c0,0,10.1-2.3,7,7.1s-19.1,15.2-19.1,15.2
		s20.3,0.8,18.2,7.8s-109.6-7-116.1-12.1s15.5-51.6,19.8-53s46.5,17.7,46.5,17.7l7.7-7.7" fill="#FFFFFF"></path><path class="st1" d="M146.9,316.6c6.2-1.2,12.4-2.2,18.6-3.1c4.5-0.7,9-1.3,13.6-1.6c1.8-0.2,3.6-0.2,5.4-0.1c1,0.1,2,0.3,2.9,0.6
		c0.4,0.1,0.8,0.3,1.1,0.6c0.1,0,0.4,0.4,0.4,0.4c-0.3,0-0.6-1.3-0.8-1.4s0-0.3-0.1,0c0,0.2,0,0.4,0,0.6c0,0.4-0.1,0.8-0.3,1.2
		c-0.4,1.1-1,2.1-1.8,3c-2.2,2.4-4.9,4.2-7.9,5.5c-0.6,0.3,1.4,4.6,2.3,4.4c1.2-0.3,2.5-0.3,3.8-0.1c0.8,0.2,1.6,0.6,2.3,1
		c-0.4-0.6-0.7-1.2-1-1.8c0,0.3,0,0.6,0.1,0.8c0,0.9-0.2,1.9-0.5,2.7c-2,6.2-8.6,10.3-14.1,13.1c-1.6,0.8-3.2,1.6-4.9,2.2
		c-0.7,0.2,1.4,4.4,2.3,4.4c3.4,0.1,6.8,0.6,10.2,1.4c2.2,0.4,4.2,1.2,6.1,2.4c0.2,0.1,0.3,0.3,0.5,0.4s0.1,0,0,0s-0.1-0.1-0.2-0.2
		s-0.9-1.4-0.8-1.7c0,0,0,0.5,0,0.6c0,0.5-0.1,0.7-0.3,0.9c-1.1,1.1-3.4,1.1-4.8,1.3c-3.2,0.3-6.4,0.3-9.7,0.2
		c-9.7-0.2-19.4-1.1-29-2c-11.1-1.1-22.2-2.5-33.3-4.1c-9.2-1.3-18.4-2.7-27.5-4.6c-2.8-0.6-5.7-1.2-8.4-2c-0.8-0.2-1.6-0.5-2.3-0.9
		l-0.3-0.2c-0.2-0.1,0.2,0.1,0.1,0c-0.1,0-0.2-0.1-0.2-0.2c0.5,0.6,0.8,1.2,1.1,1.9c-0.1-0.3,0.1,0.2,0.1,0.2c0-0.1,0-0.1-0.1-0.2
		c0-0.2,0-0.1,0,0.1l-0.1-0.3c-0.4-3.7,0.8-7.6,1.8-11.1c1.6-5.3,3.5-10.5,5.7-15.5c2.1-4.9,4.4-9.7,6.9-14.4
		c1.6-2.9,3.2-6.3,5.6-8.6c1.6-1.5,4.4-0.2,6.2,0.3c4.7,1.4,9.2,3.2,13.7,5c8.7,3.5,17.3,7.2,25.8,11l1.6,0.7h0.2l7.7-7.7
		c0.8-0.8-2.1-4.7-2.3-4.4l-4.4,4.4l-2.6,2.6c-0.2,0.2-0.4,0.5-0.6,0.6c-0.2,0.1,0.2,0.1,0,0.1c-0.3-0.1-0.6-0.2-0.8-0.4l-1.7-0.8
		l-5.5-2.4c-10.3-4.5-20.8-9.2-31.5-12.6c-1.7-0.6-3.4-1.1-5.2-1.4c-0.8-0.3-1.8-0.1-2.5,0.3c-1,0.9-1.8,2-2.5,3.2
		c-1.2,1.8-2.3,3.7-3.3,5.7c-2.8,5.1-5.2,10.4-7.5,15.7c-2.3,5.4-4.3,10.9-5.9,16.5c-1,3.7-2.1,8-0.7,11.7c0.7,1.6,1.7,3.6,3.4,4.5
		c0.8,0.4,1.7,0.7,2.5,1c7.6,2.3,15.6,3.5,23.4,4.7c11.7,1.9,23.4,3.5,35.1,4.8c11.2,1.3,22.5,2.4,33.8,3c4.1,0.2,8.3,0.4,12.4,0.2
		c2.4-0.1,5.1-0.1,7.3-0.9c3.6-1.4,0-7.1-1.7-8.7c-1.9-1.5-4.2-2.5-6.6-3c-2.4-0.6-4.9-1-7.4-1.2c-1.2-0.1-2.4-0.2-3.6-0.3l2.3,4.4
		c5.2-1.9,10-4.7,14.1-8.3c2.7-2.5,5.2-5.7,5.6-9.5c0.1-2-0.4-4.1-1.5-5.8c-0.7-1.3-1.8-2.4-3.1-3c-1.7-0.6-3.6-0.7-5.4-0.2l2.3,4.4
		c4-1.9,10.2-5.5,10.2-10.7c-0.2-2.6-1.4-5.1-3.4-6.8c-1.6-1.4-3.9-1.8-6-1.8c-4.5,0-8.9,0.4-13.3,1c-5,0.6-10,1.4-15,2.3
		c-2.8,0.5-5.6,1-8.4,1.5C144.2,312.2,145.7,316.8,146.9,316.6L146.9,316.6z" fill="#000005"></path><path class="st1" d="M160.6,336.8l19.1-9.8l2.7-1.4c0.2-0.1-1.6-1.7-1.7-1.8c-0.3-0.2-1.7-1.6-2.1-1.4l-19.1,9.8l-2.7,1.4
		c-0.2,0.1,1.6,1.7,1.8,1.8C158.7,335.7,160.1,337.1,160.6,336.8L160.6,336.8z" fill="#000005"></path></g><g id="dog"><path class="st1" d="M431.2,343.6c-0.6-3.7,4.5-5.8,7.5-5.6c1.2,0,2.4,0.5,3.4,1.2c0.2,0.2,0.4,0.3,0.3,0.6c0,0-0.4,0.4-0.4,0.3
		s0.5,0.3,0.5,0.2s-0.5-0.9-0.6-1.1c-0.7-1.5-1.4-3.4-1-5.1s2.1-2.6,3.7-3c1.7-0.6,3.6-0.5,5.2,0.4c1.3,0.9,2,2.3,2,3.8l0.4-1.1
		c-0.1,0.1-0.4,0.1-0.2,0.2s0.3,0.3,0.3,0.1c-0.1-0.5-0.3-1-0.5-1.4c-0.3-1.3-0.3-2.7,0-4.1c0.4-2.4,2.2-4.3,4.6-4.9
		c1.1-0.2,0.9-1.5,0.4-2.3c-0.7-1-1.9-1.5-3.2-1.4c-4.5,1-6.7,5.4-6.5,9.7c0,2.3,0.8,4.5,2.4,6.1c1.6,1.5,4.2,2.5,6.3,1.2
		c0.4-0.3,0.5-0.7,0.4-1.1c-0.3-5.3-5.7-9-10.7-9.2c-2.6-0.2-5.2,0.5-7.4,2.1c-1.7,1.5-2.4,3.8-1.8,6c0.4,2.5,1.5,4.9,3.2,6.8
		c1.5,1.5,4.4,2.9,6.4,1.3c2.2-1.8,0-4.8-1.6-6.1c-1.9-1.6-4.3-2.6-6.8-2.8c-4.7-0.5-11.8,2.4-10.8,8.2c0.4,1.2,1.4,2.1,2.6,2.3
		C430.3,345,431.4,344.7,431.2,343.6L431.2,343.6z"></path><g id="dog-2"><path class="st0" d="M329.2,334c0,0-9.7-13-14-13s-9.7,25.2-3.2,25.4S329.2,334,329.2,334z"></path><path class="st2" d="M331.4,333c-2.9-4.1-6.3-7.9-10.1-11.2c-2-1.7-5-3.8-7.8-2.5c-2,0.9-3.2,3.2-4,5.1c-2.3,5.4-3.3,11.2-3,17.1
			c0.1,2.1,0.6,4.5,2.2,6c2.4,2,6,0.9,8.4-0.3c5.4-2.7,10.1-7.4,14.1-12c0.7-0.8,0.5-2-0.3-2.7c-0.1-0.1-0.2-0.1-0.3-0.2
			c-1.2-0.6-2.6-0.3-3.5,0.7c-1,1.1-2,2.2-3,3.2l-0.4,0.4l-0.6,0.6c-0.6,0.5-1.1,1.1-1.7,1.6c-1.2,1.1-2.4,2.1-3.7,3
			c-1.1,0.8-2.2,1.5-3.5,2c-0.1,0.1-0.9,0.4-0.5,0.2c-0.2,0.1-0.5,0.1-0.8,0.2l-0.4,0.1c-0.4,0.1,0.4,0,0,0s-0.8-0.1-0.2,0
			c-0.5-0.2,0.4,0.2,0,0c-0.5-0.3,0.3,0.2,0,0s-0.4-0.5-0.1,0c-0.1-0.2-0.2-0.3-0.3-0.5s-0.3-0.6-0.2-0.3s-0.1-0.2-0.1-0.3
			c-0.1-0.5-0.2-1-0.3-1.5c0-0.2-0.1-0.5-0.1-0.8v-0.3c0-0.3,0,0.3,0,0c0-0.6,0-1.2,0-1.8c0.1-1.3,0.2-2.6,0.4-3.9
			c0.3-2.5,0.9-4.9,1.7-7.2c0.4-1.1,0.8-2.1,1.2-3.1c0.1-0.2,0.2-0.4,0.3-0.5s-0.2,0.2,0.1-0.2c0.2-0.3,0.5-0.7,0.8-1
			c-0.2,0.2-0.4,0.3,0,0.1s-0.5,0.3-0.1,0.1c0.3-0.1-0.6,0.2-0.4,0.1c0.1,0,0.4,0-0.1,0c-0.3,0-0.2-0.1-0.3,0s-0.2,0,0.1,0
			c0.1,0,0.2,0.1,0.3,0.1c-0.1,0-0.5-0.2-0.1,0c0.2,0.1,0.5,0.2,0.7,0.4c0.4,0.2,0.9,0.5,1.2,0.8c2.5,2,4.7,4.3,6.7,6.8
			c1.3,1.5,1.9,2.3,3.1,3.9c0.8,1,2.2,1.4,3.3,0.8C331.2,335.4,332.2,334,331.4,333z"></path><path class="st2" d="M357.2,383.1c0,0-38.1,5.6-50.1-3.3s-10.5-13.6-9.1-14.4s7.1-3.1,7.1-3.1s4.3-16,7.7-23.1s44.4-6.6,44.4-6.6
			s19.6-12.7,26-15.5s11.3,9.2,11,17.3c0,0,21.6-4.3,37.3,4.6s16.8,26.8,16.8,26.8s23.9,7.8,18.8,12.5s-36.1,3.5-54.4,4.5
			S351.2,390.4,357.2,383.1z"></path><path class="st2" d="M355.1,382.6c-4.2,0.6-8.5,1-12.8,1.3c-4,0.3-8,0.4-12,0.4c-2,0-4-0.1-6-0.2c-1.8-0.1-3.6-0.3-5.4-0.6
			c-3.1-0.4-6.1-1.5-8.8-3.1c-2.3-1.5-4.4-3.3-6.3-5.3c-1.5-1.4-2.7-3-3.6-4.8c-0.6-1.2-1.2-3.4,0-4.4c0.5-0.3,1-0.5,1.6-0.7
			c0.9-0.4,1.9-0.8,2.8-1.2l2.4-1c0.3-0.1,0.5-0.2,0.7-0.4c0.1-0.3,0.2-0.5,0.2-0.8c0.2-0.6,0.4-1.3,0.5-1.9c0.5-1.8,1-3.7,1.6-5.5
			c1.3-4.5,2.8-8.9,4.6-13.1c0.3-1.1,0.9-2,1.7-2.8c0.9-0.6,1.8-1.1,2.8-1.5c2.9-1,5.9-1.7,9-2.1c7.2-1,14.4-1.5,21.7-1.6
			c1.4,0,2.8-0.1,4.2-0.1h1.7h1c1,0,2.4,0.2,3.3-0.3c2.3-1.3,4.6-2.9,6.8-4.4c3.6-2.2,7.2-4.5,10.8-6.6c1.6-1,3.2-1.9,4.9-2.8
			c0.7-0.4,1.3-0.7,2-1l0.8-0.4c0.5-0.1,1-0.3,1.4-0.5c-0.1,0.1-2.2-0.3-2.1-0.2c0.2,0.1,0.4,0.2,0.6,0.3c0.4,0.2,0.7,0.4,1,0.7
			c0.8,0.8,1.6,1.6,2.1,2.6c1.2,2,2.1,4.2,2.6,6.5c0.6,2.3,0.9,4.6,0.8,7c0,0.7,4.1,0.9,4.6,0.8c2.5-0.5,5.1-0.8,7.7-0.9
			c5.4-0.4,10.9,0,16.2,1.3c6.3,1.6,12.1,5,16.6,9.8c3.3,3.7,5.9,8.1,7.4,12.9c0.8,2.5,1.4,5,1.6,7.6c0,0.2,0.6,0.3,0.7,0.4
			l-0.2-0.1l0.5,0.2c0.6,0.2,1.1,0.4,1.7,0.6c1.8,0.6,3.5,1.3,5.3,2c3.6,1.5,7.8,3.1,10.5,6c0.8,0.8,1.4,2,0.6,3s-2.4,1.5-3.6,1.9
			c-4.8,1.4-10.1,1.6-15,1.8c-12.5,0.6-25.1,0.2-37.7,1.1c-10.9,0.7-21.8,2.1-32.7,2.9c-4.6,0.4-9.2,0.6-13.8,0.5h-0.4h0.1l-0.6,0
			c-0.1,0-0.8-0.1-0.4,0s-0.3,0-0.4,0s0.5,0.1,0,0s0.5,0.1,0,0s0.3,0.1,0,0s0,0-0.1,0c-0.5-0.2-1.2-0.5-1.1-1.3
			c0.1-0.4,0.3-0.8,0.5-1.1c0.2-0.2-2.3-0.7-2.4-0.7c-0.5-0.1-2.1-0.4-2.5,0.1c-1.8,2.3,1.7,3.1,3.4,3.5c4.7,0.8,9.4,1,14.1,0.6
			c11.6-0.5,23.2-2,34.9-3c12.5-1.1,25.1-0.9,37.7-1.3c6-0.1,12-0.5,18-1.5c1.8-0.3,8-1.2,7.4-4.2c-0.3-1.4-1.8-2.6-2.9-3.3
			c-1.8-1.2-3.8-2.3-5.8-3.2c-3.5-1.6-7-3-10.6-4.2l-1-0.3l0.7,0.4c-0.7-7.6-3.8-14.8-8.9-20.5c-9.5-10.7-25.1-13.1-38.7-12.7
			c-3.7,0-7.4,0.4-11,1.1l4.6,0.8c0.2-4.9-1.1-9.8-3.7-14c-0.9-1.6-2.3-2.8-4-3.6c-2.4-1-5.1-1.2-7.6-0.5c-1.4,0.5-2.8,1.2-4.1,2
			c-1.7,0.9-3.4,1.9-5,2.9c-3.7,2.2-7.4,4.5-11.1,6.8c-2.1,1.3-4.1,2.7-6.2,4l1.2-0.1c-8.6-0.1-17.1,0.2-25.7,1
			c-5.2,0.5-10.7,1-15.7,2.8c-1.5,0.4-2.9,1.3-4,2.5c-0.7,1-1.2,2.2-1.5,3.3c-0.7,1.7-1.3,3.5-1.9,5.2c-1.1,3.4-2.2,6.8-3.2,10.3
			c-0.3,1.1-0.6,2.3-1,3.4c-0.1,0.3-0.2,0.6-0.3,0.9s-0.1,0.4,0,0.3c-0.3,0.2-0.7,0.4-1.1,0.5l-2.1,0.9c-1.3,0.5-2.6,1-3.8,1.7
			c-0.9,0.6-1.3,1.7-1,2.8c0.4,2.4,2.1,4.5,3.7,6.2c2.5,2.9,5.6,5.3,9,7.1c5.7,2.8,12.6,3.5,18.9,3.9c10.8,0.6,21.7,0.1,32.5-1.5
			l0.6-0.1c1-0.1-0.6-0.6-0.8-0.6C357.4,382.6,356.2,382.5,355.1,382.6z"></path><path class="st1" d="M310,376.7c0,0-6.5-8-4-9.4s12.5-5.6,12.5,0S313.9,378.4,310,376.7z"></path><path class="st1" d="M311,376.6c-0.4-0.4-0.7-0.9-1-1.4l-0.2-0.3l0.2,0.2l-0.1-0.2l-0.5-0.8c-0.4-0.5-0.7-1.1-1-1.6l-0.1-0.2
			c-0.1-0.2,0.2,0.4,0.1,0.1s-0.1-0.2-0.2-0.4c-0.1-0.3-0.3-0.6-0.4-0.9c0,0-0.2-0.5-0.1-0.2s0-0.1-0.1-0.2
			c-0.1-0.2-0.1-0.5-0.2-0.8c0-0.2,0,0.2,0,0.1c0-0.1,0-0.1,0-0.2v-0.3c0-0.1,0-0.2,0.1-0.2c-0.1,0.2,0,0,0.1-0.1
			c0.3-0.3,0.6-0.5,1-0.6c2.2-1.2,4.6-1.9,7.1-2.3c0.6-0.1,1.2-0.1,1.8-0.1c0.2,0,0,0,0,0h0.2l0.4,0.1c0.2,0.1,0.4,0.2,0,0l0.2,0.1
			l-0.2-0.1c0.3,0.2-0.3-0.2-0.3-0.2c0.3,0.2-0.3-0.3-0.3-0.3c-0.6-0.6-0.4-0.5-0.3-0.3c-0.4-0.6-0.3-0.4-0.2-0.3s-0.3-0.5-0.1-0.2
			c0.1,0.1,0,0.2,0-0.1c0,0.2,0.1,0.3,0.1,0.5c0,0.3,0,0,0,0.2s0,0.5,0,0.7c0,0.5-0.1,1.1-0.2,1.6c-0.4,2.1-1.4,4.1-3,5.6
			c-1.3,1.2-3,2-4.6,1.3c-1-0.4-0.5,1.1-0.2,1.5c0.6,1,1.5,1.8,2.6,2.2c4.2,1.6,7.5-2.8,8.6-6.3c0.6-2,0.9-4.2-0.2-6.1
			c-1-1.8-2.8-3.1-4.8-3.5c-2.9-0.4-6,0.8-8.6,2c-0.8,0.4-2.1,0.7-2.4,1.6c-0.4,1.1,0.2,2.6,0.7,3.6c1.2,2.5,2.7,4.8,4.5,6.9
			c0.4,0.5,0.9,1,1.4,1.3c0.2,0.2,0.8,0.5,1.2,0.5C312.4,378.4,311.2,376.9,311,376.6z"></path><path class="st0" d="M367,335.9c0,0,16-10.3,18.6-9.7s-5,22.5-7,23.4S366.1,339.3,367,335.9z"></path><path class="st2" d="M368.5,337.8c3.2-2,6.4-4,9.7-5.9c2.1-1.2,4.3-2.3,6.5-3.3c0.4-0.1,0.8-0.3,1.2-0.4s-0.2,0.1,0.1,0
			c0.1,0,0.3,0,0.4,0c-0.6,0.2-1.6-0.6-2.1-1.2c-0.1-0.1-0.5-0.8-0.5-0.8c0.1,0.2,0,0,0,0s0-0.3,0,0c0,0.1,0,0.1,0,0.2
			c0,0.2,0,0.3,0,0.5v0.5c0-0.4,0,0.3,0,0.4c-0.1,0.5-0.1,1-0.2,1.4c-0.2,1.1-0.5,2.3-0.8,3.4c-0.7,2.6-1.5,5.1-2.4,7.6
			c-0.7,2.1-1.6,4.2-2.6,6.2c0,0-0.2,0.4-0.4,0.7s-0.3,0.4-0.5,0.6s-0.2,0,0.1,0h0.3c0,0,0.5,0.2,0.2,0s0.4,0.3-0.1,0l-0.7-0.4
			c-0.4-0.2,0,0,0.1,0.1l-0.5-0.4c-0.5-0.4-1-0.9-1.5-1.4c-0.1-0.1-0.8-0.8-0.5-0.5c-0.3-0.3-0.6-0.6-0.9-0.9
			c-0.5-0.6-1-1.2-1.6-1.8c-0.9-1-1.6-2.1-2.3-3.3c-0.2-0.4-0.4-0.8-0.5-1.2c-0.2-0.5-0.1,0.1-0.1-0.4c0-0.1,0-0.2,0-0.2
			c0-0.3-0.1,0.3,0,0c0.4-1.9-3.7-4.6-4.1-2.6c-0.6,2.6,1.6,5.5,3,7.5c1.9,2.6,4.1,5,6.5,7.1c1.4,1.1,4.4,3.7,6.2,2
			c1.3-1.2,2-3.5,2.7-5.1c1.1-2.7,2.1-5.5,3-8.4c0.8-2.4,1.4-5,1.8-7.5c0.3-2.4-0.2-5.3-3.2-5.8c-2-0.4-4.3,1-6,1.9
			c-4.6,2.3-9.1,4.9-13.5,7.7C363.5,335.2,367,338.8,368.5,337.8z"></path><path class="st1" d="M329.2,334c0,0,16.4,0.2,20.6,6.7l14.2-2.8c0,0-1-4.2-8.1-5.2C351.7,332.1,329.2,334,329.2,334z"></path><path class="st1" d="M330.8,334.8h0.6c0.3,0,0.6,0,0.3,0l1,0.1c1.7,0.1,3.5,0.3,5.2,0.6c1.7,0.3,3.4,0.7,5,1.4
			c1.8,0.7,3.4,1.9,4.6,3.5c0.3,0.5,1.4,0.7,1.9,0.9c0.8,0.3,1.6,0.4,2.5,0.3l14.2-2.8c0.2,0,0.3-0.1,0.4-0.2
			c-0.5-1.9-2.2-3.3-3.9-4.2c-3.3-1.7-7-2.5-10.7-2.4c-6.4,0-12.9,0.5-19.2,1l-5.5,0.4c-1.1,0.1,0.5,0.9,0.7,1
			c1.1,0.4,2.2,0.6,3.4,0.6c4-0.3,8-0.6,12.1-0.9c2.9-0.2,5.9-0.4,8.8-0.5c1.2,0,2.3-0.1,3.5,0h0.6c0.6,0-0.1,0,0.2,0
			c0.1,0,0.8,0.1,0.3,0s0.7,0.1,0.8,0.2c1.7,0.5,3.7,2.2,4.1,3.8l0.4-0.2l-14.3,2.9l4.4,1.1c-2.9-4.3-9.2-5.8-13.9-6.7
			c-3.5-0.7-7.1-1.1-10.7-1.2c-0.9,0-0.9,0.4-0.2,0.8C328.5,334.5,329.6,334.8,330.8,334.8z"></path><path class="st1" d="M310,357c0,0,25.1,6.3,28,4.5s4.1-10.8,3.4-12.9s-24.1-6.9-27.5-5.4S308.4,356.6,310,357z"></path><path class="st1" d="M311.3,358.8c5.2,1.3,10.5,2.5,15.8,3.5c3.3,0.7,6.6,1.2,10,1.4c0.9,0.1,1.8,0,2.6-0.3c1.4-0.7,2-2.6,2.5-3.9
			c0.7-2,1.1-4,1.2-6.1c0.1-1.8,0.1-3.4-1.1-4.8c-1.9-2.3-4.7-3.2-7.5-4c-3.7-1-7.5-1.8-11.3-2.5c-3.2-0.7-6.4-1-9.6-0.9
			c-1.2,0-2.3,0.5-3,1.4c-1.1,1.7-2,3.5-2.4,5.5c-0.6,1.9-0.9,3.8-0.9,5.8C307.8,356,309.2,358,311.3,358.8c1,0.4,0.2-1,0-1.3
			c-0.6-1-1.5-1.8-2.6-2.2l2.7,2.7c0-0.1-0.1-0.1-0.1-0.2c0,0.1,0,0.2,0-0.1s0-0.5,0-0.8c0-0.7,0.1-1.4,0.2-2.1
			c0.2-1.7,0.6-3.4,1.2-5c0.4-1.5,1.2-2.8,2.1-4c0.6-0.6,1.4-0.9,2.2-0.9c2.8-0.1,5.7,0.2,8.5,0.7c3.5,0.5,6.9,1.2,10.3,2.1
			c1.4,0.4,2.7,0.7,4.1,1.2c0.5,0.2,1,0.4,1.5,0.6c0.2,0.1-0.2-0.1,0.2,0.1l0.2,0.1c-0.1,0.1-1.8-1.7-1.4-1.2
			c-1.3-1.6-0.6-1.3-0.6-0.7c0,0.3,0,0.6,0,1c0,0.8,0,1.7-0.1,2.5c-0.2,1.9-0.7,3.8-1.4,5.6c-0.4,1-1.2,2.6-2.2,3
			c-0.8,0.2-1.7,0.3-2.6,0.1c-3-0.2-5.9-0.6-8.9-1.2c-5.4-1-10.7-2.2-16-3.5c-1-0.2-0.3,0.9,0,1.3
			C309.3,357.6,310.2,358.4,311.3,358.8z"></path><path class="st0" d="M458.4,317c0,0-6.1-1.1-4.4,4.9s7.2,3,7.4,0S458.4,317,458.4,317z"></path><path class="st2" d="M460.3,315.9c-1.6-0.3-3.3-0.2-4.9,0.3c-1.4,0.3-2.7,1.2-3.5,2.4c-0.5,1-0.7,2.2-0.4,3.3
			c0.2,1.4,0.9,2.7,1.9,3.6c1,0.8,2.4,1.1,3.7,0.9c1.8-0.2,3.6-0.8,5-2c0.9-0.7,1.5-1.6,1.8-2.7c0.5-2.3-1.2-4.6-3.1-5.7
			c-1-0.4-2.2-0.3-3.1,0.3c-0.5,0.2-1,0.5-1.3,0.9c-0.1,0.2-0.4,0.6,0,0.8c0.8,0.5,1.5,1.1,2.1,1.9l-0.2-0.2c0.7,0.8,1,1.9,1,2.9
			v-0.3c0,0.5-0.2,1-0.4,1.4c-0.1,0.2,0.1-0.1,0-0.1c0,0.1-0.1,0.1-0.1,0.1c-0.1,0.1-0.2,0.2-0.2,0.3l-0.3,0.3
			c-0.1,0.1,0.4-0.3,0.1-0.1l-0.2,0.1c-0.1,0.1-0.2,0.1-0.3,0.2s0.5-0.3,0.2-0.2l-0.2,0.1c-0.3,0.2,0.6-0.2,0.3-0.1l-0.2,0.1
			c-0.3,0.1,0.7-0.2,0.4-0.1c-0.1,0-0.4,0.1,0.1,0h0.1c-0.3,0.1,0.5-0.1,0.4,0h-0.2c-0.3,0,0.5,0,0.3,0h-0.2c-0.3,0,0.3,0.1,0.2,0
			l-0.4-0.1l-0.2-0.1c-0.1,0,0.2,0.1,0.2,0.1c0,0-0.1,0-0.1-0.1l-0.4-0.2c-0.3-0.2-0.6-0.5-0.8-0.8l0.1,0.2
			c-0.9-1.2-1.3-2.7-1.3-4.3v0.3c0-0.3,0.1-0.6,0.1-0.9c0-0.1,0.1-0.2,0.1-0.3c0-0.1,0.1-0.1,0.1-0.2s-0.1,0.2-0.1,0.2
			c0,0,0.1-0.1,0.1-0.1l0.2-0.2c0.2-0.2-0.2,0.2-0.2,0.2s0.1-0.1,0.1-0.1c0.3-0.3-0.5,0.3-0.1,0.1l0.1-0.1c0.1-0.1-0.7,0.3-0.3,0.2
			s-0.8,0.2-0.3,0.1l0.2,0c0.1,0-0.8,0.2-0.4,0.1l0.3,0c0.3-0.1-0.7,0.1-0.4,0h0.2h0.4c0.3,0-0.6,0-0.3,0h0.5c0.3,0,0.9,0.1,0.1,0
			c1.2,0.2,2.4-0.1,3.4-0.7c0.3-0.2,0.8-0.5,0.9-0.9c0.1-0.3,0-0.6-0.3-0.7C460.5,315.9,460.4,315.9,460.3,315.9z"></path><path class="st0" d="M329.2,334c0,0-8.4-10.7-3.7-19l25.2-0.6c0,0-2.8,12.3,0,18.2C350.8,332.6,331.7,333.7,329.2,334z"></path><path class="st2" d="M331.7,334.2c-3.9-5.1-7-12.9-3.7-19l-1.3,0.2l22.1-0.6l3.1-0.1l-3.7-0.5c-0.5,2.3-0.8,4.6-1,6.9
			c-0.3,3.7-0.5,7.8,1,11.3l0.8-0.2c-7.3,0.4-14.7,0.6-21.9,1.5c-1,0.1,0.7,0.5,0.9,0.5c1.1,0.2,2.3,0.2,3.4,0.1
			c-0.6,0.1,0.3,0,0.4,0l1-0.1l2.9-0.2c2.4-0.2,4.8-0.3,7.1-0.5c3.2-0.2,6.5-0.4,9.7-0.6c-0.1,0,0.8-0.1,0.7-0.2
			c-1.5-3.4-1.4-7.6-1-11.3c0.2-2.3,0.5-4.6,1-6.9c0.1-0.4-3.5-0.5-3.7-0.5l-16.8,0.4l-7.9,0.2h-0.5c-0.4,0-1,0-1.3,0.2
			c-0.4,0.6-0.7,1.3-0.9,2c-0.7,2.4-0.7,5-0.1,7.4c0.9,3.5,2.4,6.7,4.6,9.6c0.4,0.5,1.9,0.5,2.5,0.5
			C329.4,334.4,331.7,334.2,331.7,334.2z"></path></g><path class="st1" d="M379.4,364.1c-3,1-5.9,2.3-8.6,3.9c-2.9,1.5-5.8,2.8-8.6,4.5c-5.2,3.2-8.2,8.9-6.8,15c0.7,2.8,5.3,0.9,4.6-1.7
		c-0.5-2-0.3-4.1,0.6-6c1.1-2.1,3-3.4,5-4.5c2.5-1.4,5-2.6,7.5-3.9c2.3-1.3,4.8-2.3,7.3-3.2c1.2-0.4,2-1.6,1.8-2.9
		C381.9,364,380.5,363.8,379.4,364.1L379.4,364.1z"></path><path class="st1" d="M386.8,356.5c5.2-3.6,8.7-9.3,9.4-15.6c1-7.3-1.2-14.8-4.2-21.4c-0.8-1.7-5.7-1.4-4.9,0.6
		c2.8,6.2,4.9,13,4.1,19.9c-0.6,5.5-3.2,11.2-8,14.4C380.9,355.9,385.2,357.5,386.8,356.5L386.8,356.5z"></path><path class="st1" d="M312,377.4c1.9,2.4,4.4,4.2,7.4,5.2c2.9,1.3,6.1,1.8,9.2,1.5c3-0.5,6-1.5,8.7-2.9c2.6-1.3,5.3-2.5,7.2-4.8
		c1.6-2-2.4-5-4-2.9c-1.4,1.7-3.5,2.6-5.4,3.6c-2.2,1.2-4.5,2.1-6.9,2.6c-2.3,0.4-4.6,0.2-6.8-0.6c-1.7-0.6-4.2-1.4-5.3-2.9
		c-0.6-1.1-1.9-1.7-3.2-1.4c-0.9,0.3-1.4,1.3-1.1,2.2C311.9,377.1,312,377.3,312,377.4L312,377.4z"></path><path class="st0" d="M316.5,352c0.7,0.3,1.1,1,0.8,1.7c0,0.1,0,0.1-0.1,0.2c-0.7,1.3-2.3,0.5-2.1-0.8c0-0.6,0.6-1.1,1.2-1.1
		C316.4,352,316.5,352,316.5,352z"></path><path class="st0" d="M327,354.3c0.7,0.3,1.1,1,0.8,1.7c0,0.1,0,0.1-0.1,0.2c-0.7,1.3-2.4,0.5-2.1-0.8c0-0.6,0.6-1.1,1.2-1.1
		C326.9,354.3,326.9,354.3,327,354.3z"></path></g></svg>